<svg version="1.1" viewBox="0.0 0.0 720.0 720.0" fill="none" stroke="none" stroke-linecap="square" stroke-miterlimit="10" xmlns:xlink="http://www.w3.org/1999/xlink" xmlns="http://www.w3.org/2000/svg"><clipPath id="p.0"><path d="m0 0l720.0 0l0 720.0l-720.0 0l0 -720.0z" clip-rule="nonzero"/></clipPath><g clip-path="url(#p.0)"><path fill="#000000" fill-opacity="0.0" d="m0 0l720.0 0l0 720.0l-720.0 0z" fill-rule="evenodd"/><path fill="#00ff00" d="m0 120.0l0 0c0 -66.27417 53.72583 -120.0 120.0 -120.0l0 0c31.825974 0 62.34845 12.642821 84.85281 35.147186c22.504364 22.504364 35.147186 53.026833 35.147186 84.85281l0 0c0 66.27417 -53.72583 120.0 -120.0 120.0l0 0c-66.27417 0 -120.0 -53.72583 -120.0 -120.0z" fill-rule="evenodd"/><path fill="#ff0000" d="m294.42783 44.17323l131.1496 75.82677l-131.1496 75.82677z" fill-rule="evenodd"/><path fill="#0000ff" d="m675.83203 294.4252l-75.82678 131.1496l-75.82678 -131.1496z" fill-rule="evenodd"/><path fill="#00ff00" d="m480.00525 120.0l0 0c0 -66.27417 53.72583 -120.0 120.0 -120.0l0 0c31.825989 0 62.34845 12.642821 84.852844 35.147186c22.504333 22.504364 35.147156 53.026833 35.147156 84.85281l0 0c0 66.27417 -53.72583 120.0 -120.0 120.0l0 0c-66.27417 0 -120.0 -53.72583 -120.0 -120.0z" fill-rule="evenodd"/><path fill="#00ff00" d="m0 600.0l0 0c0 -66.27417 53.72583 -120.0 120.0 -120.0l0 0c31.825974 0 62.34845 12.642822 84.85281 35.147156c22.504364 22.504395 35.147186 53.026855 35.147186 84.852844l0 0c0 66.27417 -53.72583 120.0 -120.0 120.0l0 0c-66.27417 0 -120.0 -53.72583 -120.0 -120.0z" fill-rule="evenodd"/><path fill="#00ff00" d="m480.00525 600.0l0 0c0 -66.27417 53.72583 -120.0 120.0 -120.0l0 0c31.825989 0 62.34845 12.642822 84.852844 35.147156c22.504333 22.504395 35.147156 53.026855 35.147156 84.852844l0 0c0 66.27417 -53.72583 120.0 -120.0 120.0l0 0c-66.27417 0 -120.0 -53.72583 -120.0 -120.0z" fill-rule="evenodd"/><path fill="#ff0000" d="m425.57742 675.8268l-131.1496 -75.82678l131.1496 -75.82678z" fill-rule="evenodd"/><path fill="#0000ff" d="m195.82677 425.5748l-75.82677 -131.1496l-75.82677 131.1496z" fill-rule="evenodd"/></g></svg>