<svg version="1.1" viewBox="0.0 0.0 720.0 720.0" fill="none" stroke="none" stroke-linecap="square" stroke-miterlimit="10" xmlns:xlink="http://www.w3.org/1999/xlink" xmlns="http://www.w3.org/2000/svg"><clipPath id="p.0"><path d="m0 0l720.0 0l0 720.0l-720.0 0l0 -720.0z" clip-rule="nonzero"/></clipPath><g clip-path="url(#p.0)"><path fill="#000000" fill-opacity="0.0" d="m0 0l720.0 0l0 720.0l-720.0 0z" fill-rule="evenodd"/><path fill="#000000" d="m75.826775 93.59055l568.34644 0l0 532.81885l-568.34644 0z" fill-rule="evenodd"/><path fill="#ff0000" d="m333.15656 267.63937c-35.085022 65.98273 -110.54176 99.42041 -183.03049 81.107605c-72.48872 -18.312775 -123.412506 -83.67789 -123.52252 -158.55193c-0.11001587 -74.87402 50.621964 -140.0481 123.05727 -158.0885c72.43532 -18.040405 147.99074 15.681107 183.26985 81.79608l-71.75589 38.299202l0 0c-17.718597 -33.20558 -55.58023 -50.183006 -91.82498 -41.174973c-36.24475 9.008026 -61.566574 41.68866 -61.412453 79.2596c0.15411377 37.570953 25.74459 70.38565 62.064034 79.58481c36.319443 9.199127 74.0426 -7.579254 91.48917 -40.692215z" fill-rule="evenodd"/><path fill="#ff0000" d="m674.31665 267.63937c-35.085022 65.98273 -110.54175 99.42041 -183.03049 81.107605c-72.48871 -18.312775 -123.412506 -83.67789 -123.52252 -158.55193c-0.11001587 -74.87402 50.62198 -140.0481 123.05728 -158.0885c72.4353 -18.040405 147.99072 15.681107 183.26984 81.79608l-71.75586 38.299202l0 0c-17.718628 -33.20558 -55.58026 -50.183006 -91.82501 -41.174973c-36.24475 9.008026 -61.56656 41.68866 -61.412445 79.2596c0.15411377 37.570953 25.744598 70.38565 62.064026 79.58481c36.319427 9.199127 74.04263 -7.579254 91.48917 -40.692215z" fill-rule="evenodd"/><path fill="#00ff00" d="m40.495564 388.16562l78.04724 0l0 289.6378l-78.04724 0z" fill-rule="evenodd"/><path fill="#00ff00" d="m44.734642 507.62033l0 0c18.082397 -80.45438 89.42141 -133.70099 166.06122 -123.9462c76.63982 9.754791 134.36024 79.42822 134.36024 162.18414l-76.165344 0.007873535c0 -44.406647 -29.165817 -81.71307 -67.72604 -86.629456c-38.56024 -4.916382 -74.18935 24.128815 -82.734474 67.44592z" fill-rule="evenodd"/><path fill="#00ff00" d="m267.12402 531.6197l78.04727 0l0 146.17322l-78.04727 0z" fill-rule="evenodd"/><path fill="#0000ff" d="m388.48163 532.98425l0 0c0 -81.53812 65.14786 -147.63779 145.51178 -147.63779l0 0c38.592163 0 75.60364 15.554657 102.892395 43.242096c27.288757 27.68747 42.619446 65.239716 42.619446 104.39569l0 0c0 81.538086 -65.14783 147.63782 -145.51184 147.63782l0 0c-80.36392 0 -145.51178 -66.09973 -145.51178 -147.63782zm216.54486 27.33496c10.439209 -28.669617 3.593811 -60.966644 -17.501404 -82.57251c-21.095215 -21.605865 -52.536926 -28.522797 -80.38574 -17.684204zm-142.0661 -54.66989l0 0c-10.439209 28.669586 -3.5937805 60.966583 17.501434 82.57248c21.095215 21.605835 52.536896 28.522766 80.38571 17.684204z" fill-rule="evenodd"/></g></svg>