<svg version="1.1" viewBox="0.0 0.0 133.36220472440945 175.81627296587928" fill="none" stroke="none" stroke-linecap="square" stroke-miterlimit="10" xmlns:xlink="http://www.w3.org/1999/xlink" xmlns="http://www.w3.org/2000/svg"><clipPath id="p.0"><path d="m0 0l133.3622 0l0 175.81627l-133.3622 0l0 -175.81627z" clip-rule="nonzero"/></clipPath><g clip-path="url(#p.0)"><path fill="#000000" fill-opacity="0.0" d="m0 0l133.3622 0l0 175.81627l-133.3622 0z" fill-rule="evenodd"/><path fill="#000000" fill-opacity="0.0" d="m28.774279 -55.125984l102.01575 0l0 162.58267l-102.01575 0z" fill-rule="evenodd"/><path fill="#ffffff" d="m112.7899 4.9172287l0 59.140625q0 17.140625 -8.390625 25.390625q-8.390625 8.265625 -25.28125 8.265625q-9.34375 0 -17.734375 -2.75q-8.375 -2.75 -13.625 -7.609375l4.609375 -6.921875q4.859375 4.359375 11.828125 6.78125q6.984375 2.4375 14.671875 2.4375q12.796875 0 18.8125 -5.953125q6.015625 -5.953125 6.015625 -18.5l0 -8.5625q-4.21875 6.390625 -11.078125 9.71875q-6.84375 3.328125 -15.15625 3.328125q-9.484375 0 -17.234375 -4.15625q-7.734375 -4.15625 -12.15625 -11.640625q-4.40625 -7.5 -4.40625 -16.96875q0 -9.46875 4.40625 -16.890625q4.421875 -7.421875 12.09375 -11.515625q7.6875 -4.109375 17.296875 -4.109375q8.5625 0 15.46875 3.46875q6.921875 3.453125 11.140625 9.96875l0 -12.921875l8.71875 0zm-34.4375 56.703125q7.296875 0 13.171875 -3.125q5.890625 -3.140625 9.15625 -8.765625q3.265625 -5.640625 3.265625 -12.8125q0 -7.171875 -3.265625 -12.734375q-3.265625 -5.5625 -9.09375 -8.703125q-5.8125 -3.140625 -13.234375 -3.140625q-7.296875 0 -13.125 3.078125q-5.828125 3.0625 -9.09375 8.703125q-3.25 5.625 -3.25 12.796875q0 7.171875 3.25 12.8125q3.265625 5.625 9.09375 8.765625q5.828125 3.125 13.125 3.125z" fill-rule="nonzero"/><path fill="#000000" fill-opacity="0.0" d="m3.2755907 11.133859l102.01575 0l0 162.58267l-102.01575 0z" fill-rule="evenodd"/><path fill="#ffffff" d="m53.706207 139.14583q-8.1875 0 -15.6875 -2.359375q-7.484373 -2.375 -11.703123 -5.96875l4.09375 -7.1562576q4.218748 3.328125 10.624998 5.4375076q6.40625 2.109375 13.3125 2.109375q9.21875 0 13.625 -2.875q4.421875 -2.8906326 4.421875 -8.125008q0 -3.71875 -2.4375 -5.828125q-2.421875 -2.109375 -6.140625 -3.203125q-3.703125 -1.09375 -9.859375 -2.109375q-8.1875 -1.53125 -13.1875 -3.125q-4.984375 -1.609375 -8.5 -5.453125q-3.515623 -3.84375 -3.515623 -10.625q0 -8.453125 7.031248 -13.828125q7.046875 -5.375 19.59375 -5.375q6.515625 0 13.046875 1.734375q6.53125 1.71875 10.75 4.546875l-3.96875 7.296875q-8.3125 -5.765625 -19.828125 -5.765625q-8.703125 0 -13.125 3.078125q-4.421875 3.0625 -4.421875 8.0625q0 3.828125 2.5 6.140625q2.5 2.296875 6.203125 3.390625q3.71875 1.09375 10.25 2.234375q8.0625 1.546875 12.921875 3.078125q4.859375 1.53125 8.3125 5.25q3.46875 3.703125 3.46875 10.234375q0 8.828133 -7.359375 14.015633q-7.359375 5.1875 -20.421875 5.1875z" fill-rule="nonzero"/><path fill="#000000" fill-opacity="0.0" d="m40.825333 52.805775l-28.896198 0l0 106.566925l109.30448 0l0 -105.19946" fill-rule="evenodd"/><path stroke="#ffffff" stroke-width="8.0" stroke-linejoin="round" stroke-linecap="butt" d="m40.825333 52.805775l-28.896198 0l0 106.566925l109.30448 0l0 -105.19946" fill-rule="evenodd"/></g></svg>