<svg version="1.1" viewBox="0.0 0.0 259.5826771653543 243.18897637795277" fill="none" stroke="none" stroke-linecap="square" stroke-miterlimit="10" xmlns:xlink="http://www.w3.org/1999/xlink" xmlns="http://www.w3.org/2000/svg"><clipPath id="p.0"><path d="m0 0l259.58267 0l0 243.18898l-259.58267 0l0 -243.18898z" clip-rule="nonzero"/></clipPath><g clip-path="url(#p.0)"><path fill="#000000" fill-opacity="0.0" d="m0 0l259.58267 0l0 243.18898l-259.58267 0z" fill-rule="evenodd"/><path fill="#000000" fill-opacity="0.0" d="m88.79527 -42.351707l102.01575 0l0 162.58267l-102.01575 0z" fill-rule="evenodd"/><path fill="#ffffff" d="m172.8109 17.691507l0 59.140625q0 17.140625 -8.390625 25.390625q-8.390625 8.265625 -25.28125 8.265625q-9.34375 0 -17.734375 -2.75q-8.375 -2.75 -13.625 -7.609375l4.609375 -6.921875q4.859375 4.359375 11.828125 6.78125q6.984375 2.4375 14.671875 2.4375q12.796875 0 18.8125 -5.953125q6.015625 -5.953125 6.015625 -18.5l0 -8.5625q-4.21875 6.390625 -11.078125 9.71875q-6.84375 3.328125 -15.15625 3.328125q-9.484375 0 -17.234375 -4.15625q-7.734375 -4.15625 -12.15625 -11.640625q-4.40625 -7.5 -4.40625 -16.96875q0 -9.46875 4.40625 -16.890625q4.421875 -7.421873 12.09375 -11.515623q7.6875 -4.109375 17.296875 -4.109375q8.5625 0 15.46875 3.46875q6.921875 3.453125 11.140625 9.96875l0 -12.921875l8.71875 0zm-34.4375 56.703125q7.296875 0 13.171875 -3.125q5.890625 -3.140625 9.15625 -8.765625q3.265625 -5.640625 3.265625 -12.8125q0 -7.171875 -3.265625 -12.734375q-3.265625 -5.562498 -9.09375 -8.703123q-5.8125 -3.140625 -13.234375 -3.140625q-7.296875 0 -13.125 3.078125q-5.828125 3.0625 -9.09375 8.703123q-3.25 5.625 -3.25 12.796875q0 7.171875 3.25 12.8125q3.265625 5.625 9.09375 8.765625q5.828125 3.125 13.125 3.125z" fill-rule="nonzero"/><path fill="#000000" fill-opacity="0.0" d="m63.29659 23.908136l102.01575 0l0 162.58267l-102.01575 0z" fill-rule="evenodd"/><path fill="#ffffff" d="m113.7272 151.9201q-8.1875 0 -15.6875 -2.359375q-7.484375 -2.375 -11.703125 -5.96875l4.09375 -7.15625q4.21875 3.328125 10.625 5.4375q6.40625 2.109375 13.3125 2.109375q9.21875 0 13.625 -2.875q4.421875 -2.890625 4.421875 -8.125q0 -3.71875 -2.4375 -5.8281326q-2.421875 -2.109375 -6.140625 -3.203125q-3.703125 -1.09375 -9.859375 -2.109375q-8.1875 -1.53125 -13.1875 -3.125q-4.984375 -1.609375 -8.5 -5.453125q-3.515625 -3.84375 -3.515625 -10.625q0 -8.453125 7.03125 -13.828125q7.046875 -5.375 19.59375 -5.375q6.515625 0 13.046875 1.734375q6.53125 1.71875 10.75 4.546875l-3.96875 7.296875q-8.3125 -5.765625 -19.828125 -5.765625q-8.703125 0 -13.125 3.078125q-4.421875 3.0625 -4.421875 8.0625q0 3.828125 2.5 6.140625q2.5 2.296875 6.203125 3.390625q3.71875 1.09375 10.25 2.234375q8.0625 1.546875 12.921875 3.078125q4.859375 1.53125 8.3125 5.25q3.46875 3.703125 3.46875 10.234383q0 8.828125 -7.359375 14.015625q-7.359375 5.1875 -20.421875 5.1875z" fill-rule="nonzero"/><path fill="#000000" fill-opacity="0.0" d="m100.84633 65.580055l-28.896194 0l0 106.56693l109.304474 0l0 -105.19948" fill-rule="evenodd"/><path stroke="#ffffff" stroke-width="8.0" stroke-linejoin="round" stroke-linecap="butt" d="m100.84633 65.580055l-28.896194 0l0 106.56693l109.304474 0l0 -105.19948" fill-rule="evenodd"/><path fill="#000000" fill-opacity="0.0" d="m-7.874016E-6 167.36482l254.11024 0l0 69.480316l-254.11024 0z" fill-rule="evenodd"/><path fill="#ffffff" d="m40.65895 195.25061l0 19.09375q0 5.53125 -2.71875 8.1875q-2.703125 2.671875 -8.15625 2.671875q-3.015625 0 -5.71875 -0.890625q-2.703125 -0.875 -4.40625 -2.453125l1.5 -2.234375q1.5625 1.40625 3.8125 2.1875q2.25 0.796875 4.734375 0.796875q4.140625 0 6.078125 -1.921875q1.9375 -1.921875 1.9375 -5.96875l0 -2.78125q-1.359375 2.078125 -3.578125 3.15625q-2.203125 1.0625 -4.890625 1.0625q-3.0625 0 -5.5625 -1.34375q-2.5 -1.34375 -3.921875 -3.75q-1.421875 -2.421875 -1.421875 -5.484375q0 -3.0625 1.421875 -5.453125q1.421875 -2.40625 3.90625 -3.71875q2.484375 -1.328125 5.578125 -1.328125q2.765625 0 5.0 1.125q2.234375 1.109375 3.59375 3.21875l0 -4.171875l2.8125 0zm-11.125 18.296875q2.359375 0 4.265625 -1.0q1.90625 -1.015625 2.953125 -2.828125q1.046875 -1.828125 1.046875 -4.140625q0 -2.3125 -1.046875 -4.109375q-1.046875 -1.796875 -2.9375 -2.8125q-1.875 -1.015625 -4.28125 -1.015625q-2.34375 0 -4.234375 1.0q-1.875 0.984375 -2.9375 2.8125q-1.046875 1.8125 -1.046875 4.125q0 2.3125 1.046875 4.140625q1.0625 1.8125 2.9375 2.828125q1.890625 1.0 4.234375 1.0zm28.24176 3.640625q-3.140625 0 -5.671875 -1.421875q-2.515625 -1.421875 -3.96875 -3.9375q-1.4375 -2.53125 -1.4375 -5.71875q0 -3.171875 1.4375 -5.6875q1.453125 -2.53125 3.96875 -3.9375q2.53125 -1.40625 5.671875 -1.40625q3.140625 0 5.65625 1.40625q2.515625 1.40625 3.9375 3.9375q1.4375 2.515625 1.4375 5.6875q0 3.1875 -1.4375 5.71875q-1.421875 2.515625 -3.9375 3.9375q-2.515625 1.421875 -5.65625 1.421875zm0 -2.59375q2.3125 0 4.140625 -1.046875q1.84375 -1.0625 2.875 -3.0q1.03125 -1.953125 1.03125 -4.4375q0 -2.46875 -1.03125 -4.40625q-1.03125 -1.953125 -2.875 -3.0q-1.828125 -1.0625 -4.140625 -1.0625q-2.328125 0 -4.171875 1.0625q-1.828125 1.046875 -2.890625 3.0q-1.046875 1.9375 -1.046875 4.40625q0 2.484375 1.046875 4.4375q1.0625 1.9375 2.890625 3.0q1.84375 1.046875 4.171875 1.046875zm25.91278 2.59375q-3.140625 0 -5.671875 -1.421875q-2.515625 -1.421875 -3.96875 -3.9375q-1.4375 -2.53125 -1.4375 -5.71875q0 -3.171875 1.4375 -5.6875q1.453125 -2.53125 3.96875 -3.9375q2.53125 -1.40625 5.671875 -1.40625q3.140625 0 5.65625 1.40625q2.515625 1.40625 3.9375 3.9375q1.4375 2.515625 1.4375 5.6875q0 3.1875 -1.4375 5.71875q-1.421875 2.515625 -3.9375 3.9375q-2.515625 1.421875 -5.65625 1.421875zm0 -2.59375q2.3125 0 4.140625 -1.046875q1.84375 -1.0625 2.875 -3.0q1.03125 -1.953125 1.03125 -4.4375q0 -2.46875 -1.03125 -4.40625q-1.03125 -1.953125 -2.875 -3.0q-1.828125 -1.0625 -4.140625 -1.0625q-2.328125 0 -4.171875 1.0625q-1.828125 1.046875 -2.890625 3.0q-1.046875 1.9375 -1.046875 4.40625q0 2.484375 1.046875 4.4375q1.0625 1.9375 2.890625 3.0q1.84375 1.046875 4.171875 1.046875zm36.85028 -28.28125l0 30.671875l-2.796875 0l0 -4.296875q-1.328125 2.1875 -3.5 3.34375q-2.171875 1.15625 -4.890625 1.15625q-3.0625 0 -5.546875 -1.40625q-2.46875 -1.40625 -3.875 -3.921875q-1.40625 -2.515625 -1.40625 -5.75q0 -3.21875 1.40625 -5.734375q1.40625 -2.53125 3.875 -3.90625q2.484375 -1.390625 5.546875 -1.390625q2.640625 0 4.765625 1.09375q2.125 1.09375 3.5 3.203125l0 -13.0625l2.921875 0zm-10.9375 28.28125q2.265625 0 4.09375 -1.046875q1.84375 -1.0625 2.890625 -3.0q1.0625 -1.953125 1.0625 -4.4375q0 -2.46875 -1.0625 -4.40625q-1.046875 -1.953125 -2.890625 -3.0q-1.828125 -1.0625 -4.09375 -1.0625q-2.328125 0 -4.171875 1.0625q-1.828125 1.046875 -2.890625 3.0q-1.046875 1.9375 -1.046875 4.40625q0 2.484375 1.046875 4.4375q1.0625 1.9375 2.890625 3.0q1.84375 1.046875 4.171875 1.046875zm24.958008 2.59375q-2.640625 0 -5.0625 -0.765625q-2.421875 -0.765625 -3.78125 -1.921875l1.3125 -2.3125q1.375 1.078125 3.4375 1.765625q2.0625 0.671875 4.296875 0.671875q2.96875 0 4.390625 -0.921875q1.4375 -0.9375 1.4375 -2.625q0 -1.203125 -0.796875 -1.875q-0.78125 -0.6875 -1.984375 -1.03125q-1.1875 -0.359375 -3.171875 -0.6875q-2.640625 -0.5 -4.25 -1.015625q-1.609375 -0.515625 -2.75 -1.75q-1.140625 -1.25 -1.140625 -3.4375q0 -2.734375 2.265625 -4.46875q2.28125 -1.734375 6.328125 -1.734375q2.109375 0 4.21875 0.5625q2.109375 0.5625 3.46875 1.46875l-1.28125 2.359375q-2.6875 -1.875 -6.40625 -1.875q-2.8125 0 -4.234375 1.0q-1.421875 0.984375 -1.421875 2.609375q0 1.234375 0.796875 1.984375q0.8125 0.734375 2.0 1.09375q1.203125 0.34375 3.3125 0.71875q2.609375 0.5 4.171875 1.0q1.578125 0.484375 2.6875 1.6875q1.125 1.203125 1.125 3.296875q0 2.859375 -2.375 4.53125q-2.375 1.671875 -6.59375 1.671875zm25.834473 -1.53125q-0.828125 0.75 -2.046875 1.140625q-1.21875 0.390625 -2.546875 0.390625q-3.0625 0 -4.71875 -1.640625q-1.640625 -1.65625 -1.640625 -4.671875l0 -13.15625l-3.890625 0l0 -2.46875l3.890625 0l0 -4.75l2.921875 0l0 4.75l6.625 0l0 2.46875l-6.625 0l0 12.984375q0 1.9375 0.96875 2.953125q0.984375 1.015625 2.796875 1.015625q0.90625 0 1.75 -0.28125q0.859375 -0.296875 1.46875 -0.84375l1.046875 2.109375zm24.919891 -20.40625l0 21.734375l-2.8125 0l0 -3.96875q-1.15625 1.984375 -3.1875 3.078125q-2.03125 1.09375 -4.625 1.09375q-4.265625 0 -6.71875 -2.375q-2.453125 -2.375 -2.453125 -6.96875l0 -12.59375l2.921875 0l0 12.3125q0 3.421875 1.6875 5.203125q1.703125 1.78125 4.84375 1.78125q3.4375 0 5.421875 -2.078125q1.984375 -2.09375 1.984375 -5.8125l0 -11.40625l2.9375 0zm15.407623 -6.65625q-1.90625 0 -2.875 1.03125q-0.96875 1.03125 -0.96875 3.0625l0 2.5625l6.703125 0l0 2.46875l-6.625 0l0 19.265625l-2.921875 0l0 -19.265625l-3.890625 0l0 -2.46875l3.890625 0l0 -2.6875q0 -2.984375 1.703125 -4.71875q1.71875 -1.734375 4.859375 -1.734375q1.25 0 2.40625 0.359375q1.15625 0.34375 1.9375 1.0l-1.0 2.203125q-1.28125 -1.078125 -3.21875 -1.078125zm14.010254 0q-1.90625 0 -2.875 1.03125q-0.96875 1.03125 -0.96875 3.0625l0 2.5625l6.703125 0l0 2.46875l-6.625 0l0 19.265625l-2.921875 0l0 -19.265625l-3.890625 0l0 -2.46875l3.890625 0l0 -2.6875q0 -2.984375 1.703125 -4.71875q1.71875 -1.734375 4.859375 -1.734375q1.25 0 2.40625 0.359375q1.15625 0.34375 1.9375 1.0l-1.0 2.203125q-1.28125 -1.078125 -3.21875 -1.078125zm12.650879 28.59375q-2.640625 0 -5.0625 -0.765625q-2.421875 -0.765625 -3.78125 -1.921875l1.3125 -2.3125q1.375 1.078125 3.4375 1.765625q2.0625 0.671875 4.296875 0.671875q2.96875 0 4.390625 -0.921875q1.4375 -0.9375 1.4375 -2.625q0 -1.203125 -0.796875 -1.875q-0.78125 -0.6875 -1.984375 -1.03125q-1.1875 -0.359375 -3.171875 -0.6875q-2.640625 -0.5 -4.25 -1.015625q-1.609375 -0.515625 -2.75 -1.75q-1.140625 -1.25 -1.140625 -3.4375q0 -2.734375 2.265625 -4.46875q2.28125 -1.734375 6.328125 -1.734375q2.109375 0 4.21875 0.5625q2.109375 0.5625 3.46875 1.46875l-1.28125 2.359375q-2.6875 -1.875 -6.40625 -1.875q-2.8125 0 -4.234375 1.0q-1.421875 0.984375 -1.421875 2.609375q0 1.234375 0.796875 1.984375q0.8125 0.734375 2.0 1.09375q1.203125 0.34375 3.3125 0.71875q2.609375 0.5 4.171875 1.0q1.578125 0.484375 2.6875 1.6875q1.125 1.203125 1.125 3.296875q0 2.859375 -2.375 4.53125q-2.375 1.671875 -6.59375 1.671875z" fill-rule="nonzero"/></g></svg>