<svg version="1.1" viewBox="0.0 0.0 720.0 720.0" fill="none" stroke="none" stroke-linecap="square" stroke-miterlimit="10" xmlns:xlink="http://www.w3.org/1999/xlink" xmlns="http://www.w3.org/2000/svg"><clipPath id="p.0"><path d="m0 0l720.0 0l0 720.0l-720.0 0l0 -720.0z" clip-rule="nonzero"/></clipPath><g clip-path="url(#p.0)"><path fill="#000000" fill-opacity="0.0" d="m0 0l720.0 0l0 720.0l-720.0 0z" fill-rule="evenodd"/><path fill="#000000" fill-opacity="0.0" d="m123.92782 685.79474c-13.434814 -12.437073 -89.033676 -43.074463 -80.60892 -74.62244c8.424759 -31.547974 115.90114 -84.48224 131.15749 -114.665375c15.256348 -30.183136 -20.720032 -66.888275 -39.61943 -66.43341c-18.899384 0.45483398 -94.953186 43.074738 -73.7769 69.162506c21.176289 26.087769 137.07744 77.505066 200.83466 87.36401c63.757202 9.858887 141.86044 -26.693848 181.70865 -28.21051c39.848206 -1.5166016 43.946198 10.010132 57.380585 19.110596c13.434357 9.100464 27.09665 25.329895 23.225739 35.492126c-3.8709717 10.162231 -49.41165 14.105835 -46.451447 25.481384c2.9601746 11.375549 30.96762 57.93933 64.212555 42.772034c33.244995 -15.167358 131.38629 -98.89081 135.25726 -133.776c3.8709106 -34.88513 -67.40161 -63.097656 -112.031494 -75.535c-44.629944 -12.437378 -101.32678 4.854126 -155.74805 0.91085815c-54.421265 -3.9432678 -134.3469 -5.76297 -170.77953 -24.570526c-36.432632 -18.807556 -39.846893 -73.56238 -47.816284 -88.27487" fill-rule="evenodd"/><path stroke="#000000" stroke-width="12.0" stroke-linejoin="round" stroke-linecap="butt" d="m123.92782 685.79474c-13.434814 -12.437073 -89.033676 -43.074463 -80.60892 -74.62244c8.424759 -31.547974 115.90114 -84.48224 131.15749 -114.665375c15.256348 -30.183136 -20.720032 -66.888275 -39.61943 -66.43341c-18.899384 0.45483398 -94.953186 43.074738 -73.7769 69.162506c21.176289 26.087769 137.07744 77.505066 200.83466 87.36401c63.757202 9.858887 141.86044 -26.693848 181.70865 -28.21051c39.848206 -1.5166016 43.946198 10.010132 57.380585 19.110596c13.434357 9.100464 27.09665 25.329895 23.225739 35.492126c-3.8709717 10.162231 -49.41165 14.105835 -46.451447 25.481384c2.9601746 11.375549 30.96762 57.93933 64.212555 42.772034c33.244995 -15.167358 131.38629 -98.89081 135.25726 -133.776c3.8709106 -34.88513 -67.40161 -63.097656 -112.031494 -75.535c-44.629944 -12.437378 -101.32678 4.854126 -155.74805 0.91085815c-54.421265 -3.9432678 -134.3469 -5.76297 -170.77953 -24.570526c-36.432632 -18.807556 -39.846893 -73.56238 -47.816284 -88.27487" fill-rule="evenodd"/><path fill="#b7b7b7" d="m436.078 213.20422l49.12799 34.486023l-304.2046 409.43433l-49.128006 -34.486023z" fill-rule="evenodd"/><path fill="#b7b7b7" d="m181.0014 657.1246l-63.40776 35.037476l14.279755 -69.5235z" fill-rule="evenodd"/><path fill="#ffffff" d="m445.43454 219.77217l11.702301 8.214569l-286.08792 385.05072l-11.702286 -8.214539z" fill-rule="evenodd"/><path fill="#ffffff" d="m171.04268 613.0464l-11.702026 -8.214355l-21.609314 53.048645z" fill-rule="evenodd"/><path fill="#ff0000" d="m372.06488 119.77561l0 0c44.791595 -60.29906 131.37338 -73.91383 193.3858 -30.409454l0 0c29.77948 20.89154 49.794495 52.430397 55.64209 87.67838c5.847595 35.24797 -2.951294 71.31775 -24.460938 100.27437l0 0c-44.791626 60.299072 -131.37341 73.91385 -193.38583 30.409454l0 0c-62.01245 -43.504395 -75.97272 -127.6537 -31.181122 -187.95276z" fill-rule="evenodd"/><path fill="#ffffff" d="m487.87277 108.08661l0 0c5.348877 -14.107178 26.846283 -19.035568 48.015717 -11.007874l0 0c21.169495 8.027702 33.994568 25.971565 28.64569 40.078735l0 0c-5.348877 14.107178 -26.846313 19.035583 -48.015747 11.007874l0 0c-21.169464 -8.027695 -33.994568 -25.971558 -28.64566 -40.078735z" fill-rule="evenodd"/></g></svg>