<?xml version="1.0" encoding="UTF-8" standalone="no"?>
<!-- Created with Inkscape (http://www.inkscape.org/) -->

<svg
   width="1266.3921"
   height="333.39539"
   viewBox="0 0 134.72256 35.467593"
   version="1.1"
   id="svg1"
   xml:space="preserve"
   sodipodi:docname="Unnamed document 1"
   xmlns:inkscape="http://www.inkscape.org/namespaces/inkscape"
   xmlns:sodipodi="http://sodipodi.sourceforge.net/DTD/sodipodi-0.dtd"
   xmlns="http://www.w3.org/2000/svg"
   xmlns:svg="http://www.w3.org/2000/svg"><sodipodi:namedview
     id="namedview1"
     pagecolor="#505050"
     bordercolor="#ffffff"
     borderopacity="1"
     inkscape:showpageshadow="0"
     inkscape:pageopacity="0"
     inkscape:pagecheckerboard="1"
     inkscape:deskcolor="#505050"
     inkscape:document-units="mm" /><defs
     id="defs1" /><g
     inkscape:groupmode="layer"
     id="layer2"
     inkscape:label="Layer 2"
     transform="translate(-5.8073943,-5.2590904)"><path
       d="m 12.716928,17.090666 q -3.2947006,-0.94706 -4.8019926,-2.320963 -1.4939532,-1.387242 -1.4939532,-3.41475 0,-2.2942853 1.8274249,-3.7882385 1.8407639,-1.507292 4.7753149,-1.507292 2.00083,0 3.561477,0.7736543 1.573987,0.7736543 2.427674,2.1342188 Q 19.8799,10.32786 19.8799,11.941863 h -2.574402 q 0,-1.76073 -1.120465,-2.7611455 -1.120465,-1.0137539 -3.161311,-1.0137539 -1.89412,0 -2.961229,0.8403486 -1.0537705,0.8270098 -1.0537705,2.3076238 0,1.18716 1.0004155,2.014169 1.013754,0.813671 3.428089,1.493953 2.427673,0.680283 3.788238,1.507293 1.373903,0.81367 2.027508,1.907458 0.666943,1.093787 0.666943,2.574401 0,2.36098 -1.840764,3.788238 -1.840763,1.41392 -4.922042,1.41392 -2.00083,0 -3.7348826,-0.760315 Q 7.6881747,24.480399 6.7411151,23.146512 5.8073943,21.812625 5.8073943,20.118589 h 2.5744015 q 0,1.76073 1.2938701,2.787823 1.3072091,1.013754 3.4814441,1.013754 2.027508,0 3.107957,-0.82701 1.080448,-0.827009 1.080448,-2.254268 0,-1.427259 -1.000415,-2.200913 -1.000415,-0.786994 -3.628172,-1.547309 z m 9.443918,1.307209 q 0,-2.12088 0.82701,-3.814916 0.840348,-1.694036 2.320963,-2.614418 1.493953,-0.920382 3.401411,-0.920382 2.94789,0 4.761976,2.040847 1.827425,2.040846 1.827425,5.428919 v 0.173405 q 0,2.107541 -0.813671,3.788238 -0.800332,1.667359 -2.307624,2.60108 -1.493954,0.93372 -3.441428,0.93372 -2.934551,0 -4.761976,-2.040846 -1.814086,-2.040847 -1.814086,-5.402242 z m 2.481029,0.293455 q 0,2.400996 1.107126,3.854933 1.120465,1.453936 2.987907,1.453936 1.88078,0 2.987906,-1.467275 1.107126,-1.480614 1.107126,-4.135049 0,-2.374318 -1.133804,-3.841594 -1.120465,-1.480614 -2.987906,-1.480614 -1.827425,0 -2.94789,1.453936 -1.120465,1.453937 -1.120465,4.161727 z m 22.662737,5.629002 q -1.440598,1.694036 -4.228421,1.694036 -2.307624,0 -3.521461,-1.333886 -1.200498,-1.347226 -1.213837,-3.974983 v -9.390563 h 2.46769 v 9.323869 q 0,3.281361 2.667774,3.281361 2.82784,0 3.76156,-2.107541 V 11.314936 h 2.467691 v 14.432655 h -2.347641 z m 8.48352,-13.005396 0.08003,1.814086 q 1.65402,-2.080863 4.321793,-2.080863 4.575232,0 4.615248,5.162142 v 9.53729 h -2.46769 v -9.550629 q -0.01334,-1.560648 -0.720299,-2.307624 -0.693621,-0.746977 -2.174235,-0.746977 -1.200498,0 -2.107541,0.640266 -0.907043,0.640265 -1.41392,1.680697 V 25.747591 H 53.45383 V 11.314936 Z m 12.138371,7.096278 q 0,-3.321378 1.573986,-5.335547 1.573987,-2.027508 4.12171,-2.027508 2.534385,0 4.014999,1.734053 V 5.2590904 h 2.467691 V 25.747591 h -2.267608 l -0.120049,-1.547309 q -1.480615,1.814086 -4.121711,1.814086 -2.507707,0 -4.095032,-2.054185 -1.573986,-2.054186 -1.573986,-5.362225 z m 2.46769,0.280116 q 0,2.454352 1.013754,3.841594 1.013754,1.387242 2.801162,1.387242 2.347641,0 3.428089,-2.107541 v -6.629417 q -1.107126,-2.040847 -3.401411,-2.040847 -1.814086,0 -2.82784,1.400581 -1.013754,1.400581 -1.013754,4.148388 z m 16.220062,7.056261 h -2.46769 V 5.2590904 h 2.46769 z m 9.937457,0.266777 q -2.934551,0 -4.775315,-1.920797 -1.840763,-1.934135 -1.840763,-5.162141 v -0.453522 q 0,-2.147557 0.813671,-3.828255 0.827009,-1.694036 2.294285,-2.641096 1.480614,-0.960398 3.201328,-0.960398 2.814501,0 4.375152,1.854103 1.56064,1.854102 1.56064,5.308869 v 1.027093 h -9.777386 q 0.05336,2.134218 1.240515,3.454766 1.200498,1.307209 3.041262,1.307209 1.307209,0 2.214252,-0.533554 0.907043,-0.533555 1.587327,-1.41392 l 1.50729,1.17382 q -1.81409,2.787823 -5.442258,2.787823 z M 96.244918,13.075667 q -1.493953,0 -2.507707,1.093787 -1.013754,1.080448 -1.253854,3.041262 h 7.229667 V 17.023972 Q 99.606313,15.143191 98.69927,14.116098 97.792227,13.075667 96.244918,13.075667 Z M 108.38329,7.820153 v 3.494783 h 2.69445 v 1.907458 h -2.69445 v 8.950381 q 0,0.867026 0.36015,1.307209 0.36015,0.426843 1.22717,0.426843 0.42685,0 1.17382,-0.160066 v 2.00083 q -0.97373,0.266777 -1.89412,0.266777 -1.65402,0 -2.49436,-1.000415 -0.84035,-1.000415 -0.84035,-2.841178 v -8.950381 h -2.62776 v -1.907458 h 2.62776 V 7.820153 Z m 13.97913,14.099183 q 0,-1.000415 -0.76031,-1.547309 -0.74698,-0.560232 -2.62776,-0.960398 -1.86744,-0.400166 -2.97457,-0.960399 -1.09378,-0.560232 -1.62734,-1.333886 -0.52021,-0.773655 -0.52021,-1.840764 0,-1.774069 1.49395,-3.001245 1.50729,-1.227176 3.84159,-1.227176 2.45436,0 3.97499,1.267192 1.53397,1.267193 1.53397,3.241345 h -2.48103 q 0,-1.013754 -0.86703,-1.747391 -0.85369,-0.733638 -2.1609,-0.733638 -1.34722,0 -2.10754,0.58691 -0.76031,0.58691 -0.76031,1.53397 0,0.893704 0.70696,1.347225 0.70696,0.453522 2.54772,0.867027 1.8541,0.413505 3.00125,0.987076 1.14714,0.573571 1.69403,1.387242 0.56024,0.800332 0.56024,1.960814 0,1.934136 -1.54731,3.107956 -1.54731,1.160481 -4.015,1.160481 -1.73406,0 -3.06794,-0.613588 -1.33389,-0.613587 -2.0942,-1.707375 -0.74698,-1.107126 -0.74698,-2.387657 h 2.46769 q 0.0667,1.240515 0.98708,1.974153 0.93372,0.720298 2.45435,0.720298 1.40058,0 2.24093,-0.560232 0.85368,-0.573571 0.85368,-1.520631 z m 12.75196,-6.589401 h 5.41558 v 2.334302 h -5.41558 v 6.135879 h -2.48103 v -6.135879 h -5.41558 v -2.334302 h 5.41558 V 9.6609167 h 2.48103 z"
       id="text1"
       style="font-size:27.318px;line-height:1.1;font-family:Roboto;-inkscape-font-specification:Roboto;letter-spacing:0px;fill:#ffffff;stroke-width:10.2443;stroke-linecap:round;stroke-linejoin:round;paint-order:stroke fill markers"
       aria-label="Soundlets+" /><path
       d="m 27.912329,37.378716 q -0.100551,0.860267 -0.636821,1.329504 -0.532547,0.465513 -1.418883,0.465513 -0.960818,0 -1.541778,-0.688959 -0.577236,-0.688959 -0.577236,-1.84343 V 36.11997 q 0,-0.755993 0.268136,-1.329505 0.271859,-0.573511 0.767164,-0.878888 0.495306,-0.3091 1.147024,-0.3091 0.863991,0 1.385365,0.484133 0.521375,0.480409 0.607029,1.333229 h -0.718752 q -0.0931,-0.647994 -0.405927,-0.938474 -0.3091,-0.29048 -0.867715,-0.29048 -0.685235,0 -1.076266,0.506478 -0.387306,0.506478 -0.387306,1.441227 v 0.525098 q 0,0.882612 0.368686,1.403987 0.368686,0.521374 1.031576,0.521374 0.595856,0 0.912405,-0.268135 0.320273,-0.27186 0.424547,-0.942198 z m 2.815421,-1.690742 q -0.156413,-0.02607 -0.338894,-0.02607 -0.677786,0 -0.919853,0.577236 v 2.86011 h -0.688958 v -4.029478 h 0.670338 l 0.01117,0.465513 q 0.338893,-0.539995 0.960818,-0.539995 0.201102,0 0.305377,0.05214 z m 2.234461,3.485759 q -0.819303,0 -1.333229,-0.536271 -0.513926,-0.539995 -0.513926,-1.441227 v -0.12662 q 0,-0.59958 0.227171,-1.068817 0.230894,-0.472961 0.640545,-0.737372 0.413375,-0.268135 0.893784,-0.268135 0.785786,0 1.221506,0.51765 0.435719,0.51765 0.435719,1.482192 v 0.286756 h -2.729766 q 0.0149,0.595857 0.346342,0.964543 0.335169,0.364962 0.849095,0.364962 0.364962,0 0.618201,-0.148965 0.253238,-0.148964 0.443168,-0.394754 l 0.420823,0.327721 q -0.506478,0.778337 -1.519433,0.778337 z m -0.08566,-3.612379 q -0.417099,0 -0.700131,0.305377 -0.283031,0.301652 -0.350065,0.849095 h 2.018463 v -0.05214 q -0.02979,-0.525098 -0.283032,-0.811854 -0.253239,-0.29048 -0.685235,-0.29048 z m 4.941882,3.537897 q -0.05958,-0.119171 -0.09683,-0.424548 -0.480409,0.49903 -1.147024,0.49903 -0.595856,0 -0.979438,-0.335169 -0.379859,-0.338894 -0.379859,-0.856544 0,-0.629373 0.476685,-0.975714 0.480409,-0.350066 1.348125,-0.350066 h 0.670338 v -0.316548 q 0,-0.361238 -0.215998,-0.573512 -0.215997,-0.215998 -0.636821,-0.215998 -0.368686,0 -0.618201,0.186205 -0.249515,0.186205 -0.249515,0.450616 h -0.692682 q 0,-0.301652 0.212273,-0.580959 0.215998,-0.283032 0.58096,-0.446893 0.368686,-0.16386 0.80813,-0.16386 0.696407,0 1.091162,0.350066 0.394755,0.346341 0.409651,0.957094 v 1.854602 q 0,0.554891 0.141516,0.882612 v 0.05959 z m -1.143299,-0.525099 q 0.323997,0 0.614477,-0.167584 0.29048,-0.167585 0.420823,-0.43572 v -0.82675 H 37.17044 q -1.266195,0 -1.266195,0.741096 0,0.323997 0.215998,0.506478 0.215998,0.18248 0.554891,0.18248 z m 3.738998,-4.480094 v 0.975715 h 0.752269 v 0.532547 h -0.752269 v 2.498872 q 0,0.242066 0.100551,0.364962 0.100551,0.119171 0.342617,0.119171 0.119172,0 0.327721,-0.04469 v 0.558615 q -0.271859,0.07448 -0.528822,0.07448 -0.461789,0 -0.696407,-0.279308 -0.234619,-0.279307 -0.234619,-0.793233 V 35.60232 H 38.99153 v -0.532547 h 0.733648 v -0.975715 z m 3.228797,5.079675 q -0.819302,0 -1.333228,-0.536271 -0.513926,-0.539995 -0.513926,-1.441227 v -0.12662 q 0,-0.59958 0.22717,-1.068817 0.230894,-0.472961 0.640545,-0.737372 0.413375,-0.268135 0.893785,-0.268135 0.785785,0 1.221505,0.51765 0.43572,0.51765 0.43572,1.482192 v 0.286756 h -2.729767 q 0.0149,0.595857 0.346342,0.964543 0.335169,0.364962 0.849095,0.364962 0.364962,0 0.618201,-0.148965 0.253239,-0.148964 0.443168,-0.394754 l 0.420823,0.327721 q -0.506478,0.778337 -1.519433,0.778337 z m -0.08565,-3.612379 q -0.4171,0 -0.700132,0.305377 -0.283031,0.301652 -0.350065,0.849095 h 2.018463 v -0.05214 q -0.02979,-0.525098 -0.283032,-0.811854 -0.253239,-0.29048 -0.685234,-0.29048 z m 5.660632,2.528665 0.938474,-3.020246 h 0.737372 l -1.619984,4.651403 q -0.376134,1.005507 -1.195437,1.005507 l -0.130343,-0.01117 -0.256963,-0.04841 v -0.558616 l 0.186205,0.0149 q 0.350065,0 0.543719,-0.141516 0.197377,-0.141516 0.323996,-0.51765 l 0.152689,-0.409651 -1.437504,-3.984789 h 0.752269 z m 2.051981,-1.042748 q 0,-0.592132 0.230894,-1.065093 0.234619,-0.472961 0.647994,-0.729924 0.417099,-0.256963 0.949646,-0.256963 0.823026,0 1.329504,0.569788 0.510202,0.569787 0.510202,1.515709 v 0.04841 q 0,0.588408 -0.22717,1.057645 -0.223446,0.465513 -0.64427,0.7262 -0.417099,0.260687 -0.960818,0.260687 -0.819302,0 -1.329504,-0.569788 -0.506478,-0.569787 -0.506478,-1.508261 z m 0.692683,0.08193 q 0,0.670338 0.3091,1.076265 0.312825,0.405928 0.834199,0.405928 0.525098,0 0.834199,-0.409652 0.3091,-0.413375 0.3091,-1.154471 0,-0.66289 -0.316548,-1.072541 -0.312825,-0.413376 -0.834199,-0.413376 -0.510202,0 -0.823027,0.405927 -0.312824,0.405928 -0.312824,1.16192 z m 6.327248,1.571571 q -0.402203,0.472961 -1.18054,0.472961 -0.644269,0 -0.983163,-0.37241 -0.335169,-0.376135 -0.338893,-1.109783 v -2.621767 h 0.688959 v 2.603147 q 0,0.916129 0.74482,0.916129 0.78951,0 1.050197,-0.588408 v -2.930868 h 0.688959 v 4.029478 H 58.30472 Z m 3.664517,-3.012798 q -0.156412,-0.02607 -0.338893,-0.02607 -0.677787,0 -0.919853,0.577236 v 2.86011 h -0.688959 v -4.029478 h 0.670338 l 0.01117,0.465513 q 0.338893,-0.539995 0.960818,-0.539995 0.201101,0 0.305376,0.05214 z m 2.338736,1.359297 q 0,-0.592132 0.230894,-1.065093 0.234618,-0.472961 0.647994,-0.729924 0.417099,-0.256963 0.949646,-0.256963 0.823026,0 1.329504,0.569788 0.510202,0.569787 0.510202,1.515709 v 0.04841 q 0,0.588408 -0.22717,1.057645 -0.223447,0.465513 -0.64427,0.7262 -0.417099,0.260687 -0.960818,0.260687 -0.819302,0 -1.329504,-0.569788 -0.506478,-0.569787 -0.506478,-1.508261 z m 0.692683,0.08193 q 0,0.670338 0.3091,1.076265 0.312825,0.405928 0.834199,0.405928 0.525098,0 0.834199,-0.409652 0.3091,-0.413375 0.3091,-1.154471 0,-0.66289 -0.316549,-1.072541 -0.312824,-0.413376 -0.834198,-0.413376 -0.510202,0 -0.823027,0.405927 -0.312824,0.405928 -0.312824,1.16192 z m 7.407238,1.020404 0.774613,-3.079832 h 0.688958 l -1.173092,4.029478 h -0.558615 l -0.979438,-3.053763 -0.95337,3.053763 H 69.633438 L 68.46407,35.069773 h 0.685235 l 0.793234,3.016522 0.938473,-3.016522 h 0.554891 z m 2.81542,-3.079832 0.02235,0.506478 q 0.461788,-0.58096 1.206608,-0.58096 1.277367,0 1.28854,1.441227 v 2.662733 h -0.688959 v -2.666457 q -0.0037,-0.43572 -0.201102,-0.644269 -0.193653,-0.20855 -0.607028,-0.20855 -0.335169,0 -0.588408,0.178757 -0.253239,0.178757 -0.394755,0.469237 v 2.871282 H 74.5567 v -4.029478 z m 7.790822,2.960661 q 0,-0.279308 -0.212274,-0.431996 -0.20855,-0.156412 -0.733648,-0.268135 -0.521374,-0.111723 -0.830475,-0.268136 -0.305376,-0.156412 -0.45434,-0.37241 -0.14524,-0.215998 -0.14524,-0.513926 0,-0.495305 0.417099,-0.837923 0.420824,-0.342617 1.072541,-0.342617 0.685235,0 1.109783,0.35379 0.428271,0.353789 0.428271,0.904956 h -0.692683 q 0,-0.283031 -0.242066,-0.487857 -0.238343,-0.204826 -0.603305,-0.204826 -0.376134,0 -0.588408,0.163861 -0.212273,0.16386 -0.212273,0.428272 0,0.249514 0.197377,0.376134 0.197377,0.126619 0.711303,0.242066 0.51765,0.115448 0.837923,0.275584 0.320273,0.160136 0.472961,0.387306 0.156412,0.223447 0.156412,0.547443 0,0.539995 -0.431995,0.867716 -0.431996,0.323997 -1.120955,0.323997 -0.484133,0 -0.856543,-0.171309 -0.37241,-0.171309 -0.584684,-0.476685 -0.20855,-0.3091 -0.20855,-0.666614 h 0.688959 q 0.01862,0.346341 0.275583,0.551167 0.260687,0.201102 0.685235,0.201102 0.391031,0 0.625649,-0.156413 0.238343,-0.160136 0.238343,-0.424547 z m 1.403982,-0.983163 q 0,-0.592132 0.230895,-1.065093 0.234618,-0.472961 0.647993,-0.729924 0.4171,-0.256963 0.949646,-0.256963 0.823027,0 1.329504,0.569788 0.510202,0.569787 0.510202,1.515709 v 0.04841 q 0,0.588408 -0.22717,1.057645 -0.223446,0.465513 -0.644269,0.7262 -0.4171,0.260687 -0.960819,0.260687 -0.819302,0 -1.329504,-0.569788 -0.506478,-0.569787 -0.506478,-1.508261 z m 0.692683,0.08193 q 0,0.670338 0.309101,1.076265 0.312824,0.405928 0.834198,0.405928 0.525099,0 0.834199,-0.409652 0.309101,-0.413375 0.309101,-1.154471 0,-0.66289 -0.316549,-1.072541 -0.312825,-0.413376 -0.834199,-0.413376 -0.510202,0 -0.823026,0.405927 -0.312825,0.405928 -0.312825,1.16192 z m 6.327249,1.571571 q -0.402203,0.472961 -1.180541,0.472961 -0.644269,0 -0.983162,-0.37241 -0.335169,-0.376135 -0.338894,-1.109783 v -2.621767 h 0.688959 v 2.603147 q 0,0.916129 0.744821,0.916129 0.789509,0 1.050196,-0.588408 v -2.930868 h 0.688959 v 4.029478 H 91.43805 Z m 2.368531,-3.630999 0.02235,0.506478 q 0.461788,-0.58096 1.206609,-0.58096 1.277366,0 1.288539,1.441227 v 2.662733 h -0.688959 v -2.666457 q -0.0037,-0.43572 -0.201101,-0.644269 -0.193654,-0.20855 -0.607029,-0.20855 -0.335169,0 -0.588408,0.178757 -0.253239,0.178757 -0.394755,0.469237 v 2.871282 h -0.688959 v -4.029478 z m 3.388935,1.981222 q 0,-0.927301 0.439444,-1.489641 0.439443,-0.566063 1.150747,-0.566063 0.707579,0 1.120954,0.484133 v -2.100393 h 0.688956 v 5.72022 h -0.633094 l -0.03352,-0.431996 q -0.413375,0.506478 -1.150747,0.506478 -0.700131,0 -1.143299,-0.573512 -0.43944,-0.573511 -0.43944,-1.497089 z m 0.688958,0.07821 q 0,0.685235 0.283032,1.072541 0.283032,0.387307 0.782061,0.387307 0.655442,0 0.957094,-0.588408 v -1.850879 q -0.3091,-0.569787 -0.949645,-0.569787 -0.506478,0 -0.78951,0.391031 -0.283032,0.39103 -0.283032,1.158195 z m 7.191233,0 q 0,0.923577 -0.42455,1.485917 -0.42454,0.558615 -1.13957,0.558615 -0.76344,0 -1.18054,-0.539995 l -0.0335,0.465513 h -0.6331 v -5.72022 h 0.68896 v 2.13391 q 0.4171,-0.51765 1.15075,-0.51765 0.73365,0 1.15075,0.554891 0.42082,0.554891 0.42082,1.519433 z m -0.68896,-0.07821 q 0,-0.703855 -0.27186,-1.087438 -0.27186,-0.383582 -0.78206,-0.383582 -0.68151,0 -0.97944,0.633097 v 1.74288 q 0.31655,0.633097 0.98689,0.633097 0.49531,0 0.77089,-0.383583 0.27558,-0.383582 0.27558,-1.154471 z m 1.3742,-0.0037 q 0,-0.592132 0.2309,-1.065093 0.23462,-0.472961 0.64799,-0.729924 0.4171,-0.256963 0.94965,-0.256963 0.82302,0 1.3295,0.569788 0.5102,0.569787 0.5102,1.515709 v 0.04841 q 0,0.588408 -0.22717,1.057645 -0.22344,0.465513 -0.64427,0.7262 -0.4171,0.260687 -0.96081,0.260687 -0.81931,0 -1.32951,-0.569788 -0.50648,-0.569787 -0.50648,-1.508261 z m 0.69269,0.08193 q 0,0.670338 0.3091,1.076265 0.31282,0.405928 0.8342,0.405928 0.52509,0 0.83419,-0.409652 0.3091,-0.413375 0.3091,-1.154471 0,-0.66289 -0.31654,-1.072541 -0.31283,-0.413376 -0.8342,-0.413376 -0.51021,0 -0.82303,0.405927 -0.31282,0.405928 -0.31282,1.16192 z m 6.32724,1.97005 q -0.0596,-0.119171 -0.0968,-0.424548 -0.48041,0.49903 -1.14702,0.49903 -0.59586,0 -0.97944,-0.335169 -0.37986,-0.338894 -0.37986,-0.856544 0,-0.629373 0.47669,-0.975714 0.48041,-0.350066 1.34812,-0.350066 h 0.67034 v -0.316548 q 0,-0.361238 -0.216,-0.573512 -0.21599,-0.215998 -0.63682,-0.215998 -0.36868,0 -0.6182,0.186205 -0.24951,0.186205 -0.24951,0.450616 h -0.69269 q 0,-0.301652 0.21228,-0.580959 0.216,-0.283032 0.58096,-0.446893 0.36868,-0.16386 0.80813,-0.16386 0.6964,0 1.09116,0.350066 0.39475,0.346341 0.40965,0.957094 v 1.854602 q 0,0.554891 0.14152,0.882612 v 0.05959 z m -1.1433,-0.525099 q 0.324,0 0.61448,-0.167584 0.29048,-0.167585 0.42082,-0.43572 v -0.82675 h -0.53999 q -1.2662,0 -1.2662,0.741096 0,0.323997 0.216,0.506478 0.216,0.18248 0.55489,0.18248 z m 4.75196,-2.886178 q -0.15642,-0.02607 -0.3389,-0.02607 -0.67778,0 -0.91985,0.577236 v 2.86011 h -0.68896 v -4.029478 h 0.67034 l 0.0112,0.465513 q 0.3389,-0.539995 0.96082,-0.539995 0.2011,0 0.30538,0.05214 z m 0.39475,1.363021 q 0,-0.927301 0.43944,-1.489641 0.43945,-0.566063 1.15075,-0.566063 0.70758,0 1.12095,0.484133 v -2.100393 h 0.68896 v 5.72022 h -0.6331 l -0.0335,-0.431996 q -0.41338,0.506478 -1.15075,0.506478 -0.70013,0 -1.1433,-0.573512 -0.43944,-0.573511 -0.43944,-1.497089 z m 0.68896,0.07821 q 0,0.685235 0.28303,1.072541 0.28303,0.387307 0.78206,0.387307 0.65544,0 0.95709,-0.588408 V 36.14979 q -0.3091,-0.569787 -0.94964,-0.569787 -0.50648,0 -0.78951,0.391031 -0.28303,0.39103 -0.28303,1.158195 z m 3.79486,1.608812 q 0,-0.178757 0.10427,-0.297928 0.108,-0.119171 0.32027,-0.119171 0.21228,0 0.32028,0.119171 0.11172,0.119171 0.11172,0.297928 0,0.171309 -0.11172,0.286756 -0.108,0.115447 -0.32028,0.115447 -0.21227,0 -0.32027,-0.115447 -0.10427,-0.115447 -0.10427,-0.286756 z"
       id="text1-3"
       style="font-size:7.62696px;line-height:1.1;font-family:Roboto;-inkscape-font-specification:Roboto;letter-spacing:0px;fill:#ffffff;stroke-width:2.86012;stroke-linecap:round;stroke-linejoin:round;paint-order:stroke fill markers"
       aria-label="Create your own soundboard." /></g></svg>
