<svg version="1.1" xmlns="http://www.w3.org/2000/svg" xmlns:xlink="http://www.w3.org/1999/xlink" width="131.14962" height="131.14962" viewBox="0,0,131.14962,131.14962"><defs><linearGradient x1="240" y1="114.42519" x2="240" y2="245.57481" gradientUnits="userSpaceOnUse" id="color-1"><stop offset="0" stop-color="#dfdfdf"/><stop offset="1" stop-color="#787878"/></linearGradient></defs><g transform="translate(-174.42519,-114.42519)"><g data-paper-data="{&quot;isPaintingLayer&quot;:true}" stroke="none" stroke-width="1" stroke-linejoin="miter" stroke-miterlimit="10" stroke-dasharray="" stroke-dashoffset="0" style="mix-blend-mode: normal"><path d="M174.42519,136.28389c0,-12.07223 9.78648,-21.8587 21.8587,-21.8587h87.43219c5.7973,0 11.35715,2.30296 15.45645,6.40227c4.0993,4.0993 6.40228,9.65915 6.40228,15.45644v87.43221c0,12.07222 -9.7865,21.8587 -21.85873,21.8587h-87.43219c-12.07222,0 -21.8587,-9.78648 -21.8587,-21.8587z" fill="url(#color-1)" fill-rule="evenodd" stroke-linecap="square"/><path d="M294.16667,185.41667h-43.33333v-10.83333h43.33333zM294.16667,152.91667h-43.33333v10.83333h43.33333zM250.83333,207.08333h43.33333v-10.83333h-43.33333zM240,163.75v32.5c0,5.95833 -4.875,10.83333 -10.83333,10.83333h-32.5c-5.95833,0 -10.83333,-4.875 -10.83333,-10.83333v-32.5c0,-5.95833 4.875,-10.83333 10.83333,-10.83333h32.5c5.95833,0 10.83333,4.875 10.83333,10.83333zM231.875,196.25l-12.1875,-16.25l-9.47917,12.24167l-6.77083,-8.17917l-9.47917,12.1875z" fill="#000000" fill-rule="nonzero" stroke-linecap="butt"/></g></g></svg>