<svg version="1.1" xmlns="http://www.w3.org/2000/svg" xmlns:xlink="http://www.w3.org/1999/xlink" width="131.94333" height="131.66811" viewBox="0,0,131.94333,131.66811"><g transform="translate(-173.75,-113.9067)"><g data-paper-data="{&quot;isPaintingLayer&quot;:true}" stroke="none" stroke-linejoin="miter" stroke-miterlimit="10" stroke-dasharray="" stroke-dashoffset="0" style="mix-blend-mode: normal"><path d="M174.42519,136.28389c0,-12.07223 9.78648,-21.8587 21.8587,-21.8587h87.43219c5.7973,0 11.35715,2.30296 15.45645,6.40227c4.0993,4.0993 6.40228,9.65915 6.40228,15.45644v16.59763c-0.55678,3.43258 -0.49802,7.10236 0,10.27625v60.55833c0,12.07222 -9.7865,21.8587 -21.85873,21.8587h-87.43219c-12.07222,0 -21.8587,-9.78648 -21.8587,-21.8587z" fill="#272727" fill-rule="evenodd" stroke-width="1" stroke-linecap="square"/><path d="M173.75,226.4067c0,-2.5 2.5,-2.5 2.5,-2.5c1.70639,0 3.64572,0 5.5,0c0,-2.68506 0,-6.02688 0,-8c0,-23 0,-46 0,-69c0,0 0,0 0,0c0,-0.86824 0.30154,-1.43494 0.69517,-1.80483c0.36989,-0.39363 0.93659,-0.69517 1.80483,-0.69517c3.5682,0 8.15497,0 12.30652,0c0.49622,-4.36157 4.19915,-7.75 8.69348,-7.75c4.83249,0 8.75,3.91751 8.75,8.75c0,4.83249 -3.91751,8.75 -8.75,8.75c-3.39122,0 -6.33185,-1.92921 -7.78426,-4.75c-3.57191,0 -7.14383,0 -10.71574,0c0,22.16667 0,44.33333 0,66.5c0,2.66667 0,5.33333 0,8c0,0 0,2.5 0,2.5c0,0.86824 -0.30154,1.43494 -0.69517,1.80483c-0.73978,0.69517 -1.80483,0.69517 -1.80483,0.69517c-2.5,0 -5,0 -7.5,0h-0.5c0,0 -2.5,0 -2.5,-2.5z" fill="#ff0000" fill-rule="nonzero" stroke-width="0.5" stroke-linecap="butt"/><path d="M304.75,229.4067c0,2.5 -2.5,2.5 -2.5,2.5c-11.33333,0 -24.16667,0 -35.5,0c-0.86824,0 -1.43494,-0.30154 -1.80483,-0.69517c-0.39363,-0.36989 -0.69517,-0.93659 -0.69517,-1.80483c0,-6.6605 0,-14.27106 0,-20.97962c-3.8687,-0.90458 -6.75,-4.376 -6.75,-8.52038c0,-4.83249 3.91751,-8.75 8.75,-8.75c4.83249,0 8.75,3.91751 8.75,8.75c0,3.77859 -2.39512,6.99777 -5.75,8.22218c0,6.25927 0,12.51855 0,18.77782c10.5,0 21,0 31.5,0h1.5c0,0 2.5,0 2.5,2.5z" fill="#2300ff" fill-rule="nonzero" stroke-width="0.5" stroke-linecap="butt"/><path d="M305.25,163.9067c-1.66667,0 -5.83333,0 -7.5,0c-19.5,0 -39,0 -58.5,0c0,0 -1.06506,0 -1.80483,-0.69517c-0.39363,-0.36989 -0.69517,-0.93659 -0.69517,-1.80483c0,-6.83333 0,-14.16667 0,-21c0,0 0,0 0,0c0,-7.16667 0,-16.83333 0,-24c0,0 0,-2.5 2.5,-2.5c2.5,0 2.5,2.5 2.5,2.5c0,7.16667 0,14.33333 0,21.5c0,6.18759 0,14.425 0,21c18.66667,0 37.33333,0 56,0c1.66667,0 3.33333,0 5,0l2.44161,0c0.04668,1.72687 0.22121,3.40775 0.50172,4.95171c-0.26336,0.04829 -0.44333,0.04829 -0.44333,0.04829z" fill="#30ff00" fill-rule="nonzero" stroke-width="0.5" stroke-linecap="butt"/><text transform="translate(191.92002,200.05508) scale(1.73825,1.73825)" font-size="40" xml:space="preserve" fill="#ffffff" fill-rule="nonzero" stroke="none" stroke-width="1" stroke-linecap="butt" stroke-linejoin="miter" stroke-miterlimit="10" stroke-dasharray="" stroke-dashoffset="0" font-family="Sans Serif" font-weight="normal" text-anchor="start" style="mix-blend-mode: normal"><tspan x="0" dy="0">g.c</tspan></text></g></g></svg>