<svg version="1.1" xmlns="http://www.w3.org/2000/svg" xmlns:xlink="http://www.w3.org/1999/xlink" width="221.27202" height="284.94045" viewBox="0,0,221.27202,284.94045"><g transform="translate(-139.00386,-37.52977)"><g data-paper-data="{&quot;isPaintingLayer&quot;:true}" fill-rule="nonzero" stroke-linecap="butt" stroke-linejoin="miter" stroke-miterlimit="10" stroke-dasharray="" stroke-dashoffset="0" style="mix-blend-mode: normal"><path d="M254.69894,269.34296h105.57694l-3.29927,3.29752h-102.27767c-21.85965,-0.00601 -39.58531,17.70027 -39.59132,39.54821v-3.27562c-0.00608,-21.84794 17.70977,-39.56402 39.5695,-39.57003z" fill-opacity="0.2" fill="#ffffff" stroke="none" stroke-width="1"/><path d="M317.73363,86.55905c28.68242,42.90768 17.13181,100.9304 -25.79897,129.59738v78.04911h-20.77583v20.76469h-57.13354v-20.76469h-20.77583v-74.83059c-28.92952,-16.69075 -46.74967,-47.54141 -46.7456,-80.92693c0.00629,-51.59974 41.86369,-93.42453 93.4912,-93.41824c31.22613,-0.00185 60.3915,15.57877 77.73857,41.52927zM271.15877,252.67626h-57.13354v20.76463h57.13354zM307.92176,164.3802c14.3343,-37.50321 -4.46413,-79.5195 -41.98751,-93.84602c-37.52337,-14.32652 -79.56229,4.4618 -93.89653,41.96494c-14.3343,37.50321 4.46413,79.51944 41.98751,93.84602v25.56647h57.13354v-27.79869c16.91415,-8.02156 30.08202,-22.2531 36.76299,-39.73273z" fill="#ffffff" stroke="#ffffff" stroke-width="15"/></g></g></svg>