<svg version="1.1" xmlns="http://www.w3.org/2000/svg" xmlns:xlink="http://www.w3.org/1999/xlink" width="131.14962" height="131.14962" viewBox="0,0,131.14962,131.14962"><defs><linearGradient x1="240" y1="114.4252" x2="240" y2="245.57482" gradientUnits="userSpaceOnUse" id="color-1"><stop offset="0" stop-color="#00d2ff"/><stop offset="1" stop-color="#2f00ff"/></linearGradient><linearGradient x1="218.5" y1="133.4067" x2="218.5" y2="185.90671" gradientUnits="userSpaceOnUse" id="color-2"><stop offset="0" stop-color="#ff00ff" stop-opacity="0.54118"/><stop offset="1" stop-color="#fff200" stop-opacity="0.56471"/></linearGradient><linearGradient x1="218" y1="133.9067" x2="218" y2="186.40671" gradientUnits="userSpaceOnUse" id="color-3"><stop offset="0" stop-color="#ff00fe"/><stop offset="1" stop-color="#fff200"/></linearGradient></defs><g transform="translate(-174.42519,-114.42519)"><g data-paper-data="{&quot;isPaintingLayer&quot;:true}" stroke-linejoin="miter" stroke-miterlimit="10" stroke-dasharray="" stroke-dashoffset="0" style="mix-blend-mode: normal"><path d="M174.42519,136.2839c0,-12.07223 9.78648,-21.8587 21.8587,-21.8587h87.43219c5.7973,0 11.35715,2.30296 15.45645,6.40227c4.0993,4.0993 6.40228,9.65915 6.40228,15.45644v16.59763c-0.55678,3.43258 -0.49802,7.10236 0,10.27625v60.55833c0,12.07222 -9.7865,21.8587 -21.85873,21.8587h-87.43219c-12.07222,0 -21.8587,-9.78648 -21.8587,-21.8587z" fill="url(#color-1)" fill-rule="evenodd" stroke="none" stroke-width="1" stroke-linecap="square"/><path d="M244.25,159.6567c0,14.49748 -11.52867,26.25 -25.75,26.25c-14.22133,0 -25.75,-11.75252 -25.75,-26.25c0,-14.49748 11.52867,-26.25 25.75,-26.25c14.22133,0 25.75,11.75252 25.75,26.25z" fill="url(#color-2)" fill-rule="nonzero" stroke="#000000" stroke-width="2.5" stroke-linecap="butt"/><path d="M243.75,160.1567c0,2.50275 -0.34358,4.92369 -0.98528,7.21649c-3.40602,-11.28283 -25.57702,-10.12239 -25.57702,4.59253c0,1.7771 0.96476,5.16882 1.31231,5.94098c0.6242,1.38679 6.01269,4.98103 10.13256,6.16477c-3.24119,1.49993 -6.84119,2.33523 -10.63256,2.33523c-14.22133,0 -25.75,-11.75252 -25.75,-26.25c0,-14.49748 11.52867,-26.25 25.75,-26.25c14.22133,0 25.75,11.75252 25.75,26.25z" fill="url(#color-3)" fill-rule="nonzero" stroke="#000000" stroke-width="2.5" stroke-linecap="butt"/><path d="M216.39955,158.28085l-0.89234,-10.90101l8.29459,6.53698l-2.64353,1.73965l2.51605,4.6202l-1.69748,0.99979l-2.48069,-4.64786z" fill="#ffffff" fill-rule="nonzero" stroke="#000000" stroke-width="0.5" stroke-linecap="round"/><text transform="translate(202.25,199.6567) scale(0.82503,0.82503)" font-size="40" xml:space="preserve" fill="#ffffff" fill-rule="nonzero" stroke="none" stroke-width="1" stroke-linecap="butt" stroke-linejoin="miter" stroke-miterlimit="10" stroke-dasharray="" stroke-dashoffset="0" font-family="Sans Serif" font-weight="normal" text-anchor="start" style="mix-blend-mode: normal"><tspan x="0" dy="0">hover</tspan></text></g></g></svg>