<svg version="1.1" xmlns="http://www.w3.org/2000/svg" xmlns:xlink="http://www.w3.org/1999/xlink" width="131.14962" height="131.14962" viewBox="0,0,131.14962,131.14962"><g transform="translate(-174.42519,-114.42519)"><g data-paper-data="{&quot;isPaintingLayer&quot;:true}" fill-rule="evenodd" stroke-miterlimit="10" stroke-dasharray="" stroke-dashoffset="0" style="mix-blend-mode: normal"><path d="M174.42519,136.28389c0,-12.07223 9.78648,-21.8587 21.8587,-21.8587h87.43219c5.7973,0 11.35715,2.30296 15.45645,6.40227c4.0993,4.0993 6.40228,9.65915 6.40228,15.45644v87.43221c0,12.07222 -9.7865,21.8587 -21.85873,21.8587h-87.43219c-12.07222,0 -21.8587,-9.78648 -21.8587,-21.8587z" fill="#ffffff" stroke="none" stroke-width="1" stroke-linecap="square" stroke-linejoin="miter"/><g><path d="M212.83636,176.99044c1.27972,2.45524 1.82799,11.59282 7.67833,14.73146c5.85034,3.13864 18.68479,3.44231 27.42374,4.10037c8.73896,0.65806 17.84332,-2.22758 25.00999,-0.15201c7.16666,2.07556 18.61158,6.78372 17.98999,12.60541c-0.6216,5.8217 -16.38111,19.7936 -21.71958,22.32476c-5.33846,2.53114 -9.83589,-5.2395 -10.31124,-7.13787c-0.47535,-1.89837 6.83756,-2.55648 7.45916,-4.25237c0.62159,-1.69589 -1.5723,-4.40429 -3.72958,-5.92299c-2.15729,-1.5187 -2.81534,-3.4423 -9.21416,-3.18921c-6.39882,0.2531 -18.94062,6.35308 -29.17874,4.70782c-10.23812,-1.64528 -28.8495,-10.22588 -32.24998,-14.57945c-3.40048,-4.35357 8.81222,-11.46605 11.84708,-11.54195c3.03486,-0.07591 8.81194,6.0495 6.36208,11.08652c-2.44986,5.03701 -19.7084,13.87077 -21.06124,19.13555c-1.35285,5.26478 10.7868,10.3776 12.94416,12.45312" fill-opacity="0" fill="#000000" stroke="none" stroke-width="1" stroke-linecap="square" stroke-linejoin="miter"/><path d="M212.83636,176.99044c1.27972,2.45524 1.82799,11.59282 7.67833,14.73146c5.85034,3.13864 18.68479,3.44231 27.42374,4.10037c8.73896,0.65806 17.84332,-2.22758 25.00999,-0.15201c7.16666,2.07556 18.61158,6.78372 17.98999,12.60541c-0.6216,5.8217 -16.38111,19.7936 -21.71958,22.32476c-5.33846,2.53114 -9.83589,-5.2395 -10.31124,-7.13787c-0.47535,-1.89837 6.83756,-2.55648 7.45916,-4.25237c0.62159,-1.69589 -1.5723,-4.40429 -3.72958,-5.92299c-2.15729,-1.5187 -2.81534,-3.4423 -9.21416,-3.18921c-6.39882,0.2531 -18.94062,6.35308 -29.17874,4.70782c-10.23812,-1.64528 -28.8495,-10.22588 -32.24998,-14.57945c-3.40048,-4.35357 8.81222,-11.46605 11.84708,-11.54195c3.03486,-0.07591 8.81194,6.0495 6.36208,11.08652c-2.44986,5.03701 -19.7084,13.87077 -21.06124,19.13555c-1.35285,5.26478 10.7868,10.3776 12.94416,12.45312" fill="none" stroke="#000000" stroke-width="4.5" stroke-linecap="butt" stroke-linejoin="round"/><path d="M252.21137,152.4929l7.88896,5.75508l-48.84911,68.32707l-7.88896,-5.75508z" fill="#b7b7b7" stroke="none" stroke-width="1" stroke-linecap="square" stroke-linejoin="miter"/><path d="M211.25122,226.57505l-10.18201,5.84711l2.29304,-11.6022z" fill="#b7b7b7" stroke="none" stroke-width="1" stroke-linecap="square" stroke-linejoin="miter"/><path d="M253.71384,153.58897l1.87915,1.37086l-45.93993,64.25789l-1.87915,-1.37086z" fill="#ffffff" stroke="none" stroke-width="1" stroke-linecap="square" stroke-linejoin="miter"/><path d="M204.30293,226.70123l3.47002,-8.85284l1.87911,1.37082z" fill="#ffffff" stroke="none" stroke-width="1" stroke-linecap="square" stroke-linejoin="miter"/><path d="M241.93216,136.90138v0c7.19262,-10.06281 21.09591,-12.33486 31.05385,-5.07478v0c4.78198,3.48641 7.99599,8.74967 8.93499,14.63191c0.93901,5.88224 -0.47392,11.90162 -3.92793,16.73395v0c-7.19263,10.06281 -21.09591,12.33486 -31.05385,5.07478v0c-9.95795,-7.26008 -12.19968,-21.30306 -5.00706,-31.36586z" fill="#ff0000" stroke="none" stroke-width="1" stroke-linecap="square" stroke-linejoin="miter"/><path d="M260.52856,134.9507v0c0.85892,-2.35423 4.31097,-3.17669 7.71035,-1.83701v0c3.39939,1.33968 5.45884,4.33418 4.59992,6.68841v0c-0.85892,2.35423 -4.31097,3.17669 -7.71036,1.83701v0c-3.39939,-1.33968 -5.45884,-4.33418 -4.59991,-6.68841z" fill="#ffffff" stroke="none" stroke-width="1" stroke-linecap="square" stroke-linejoin="miter"/></g></g></g></svg>