<svg version="1.1" xmlns="http://www.w3.org/2000/svg" xmlns:xlink="http://www.w3.org/1999/xlink" width="131.14962" height="131.14962" viewBox="0,0,131.14962,131.14962"><defs><linearGradient x1="192" y1="163" x2="192" y2="232" gradientUnits="userSpaceOnUse" id="color-1"><stop offset="0" stop-color="#e4e4e4"/><stop offset="1" stop-color="#ffffff"/></linearGradient><linearGradient x1="290" y1="142" x2="290" y2="211" gradientUnits="userSpaceOnUse" id="color-2"><stop offset="0" stop-color="#e4e4e4"/><stop offset="1" stop-color="#ffffff"/></linearGradient></defs><g transform="translate(-174.42519,-114.42519)"><g data-paper-data="{&quot;isPaintingLayer&quot;:true}" stroke="none" stroke-linejoin="miter" stroke-miterlimit="10" stroke-dasharray="" stroke-dashoffset="0" style="mix-blend-mode: normal"><path d="M174.42519,136.28389c0,-12.07223 9.78648,-21.8587 21.8587,-21.8587h87.43219c5.7973,0 11.35715,2.30296 15.45645,6.40227c4.0993,4.0993 6.40228,9.65915 6.40228,15.45644v87.43221c0,12.07222 -9.7865,21.8587 -21.85873,21.8587h-87.43219c-12.07222,0 -21.8587,-9.78648 -21.8587,-21.8587z" fill="#000000" fill-rule="evenodd" stroke-width="1" stroke-linecap="square"/><path d="M184.5,232v-69h15v69z" fill="url(#color-1)" fill-rule="nonzero" stroke-width="0" stroke-linecap="butt"/><path d="M212.95833,189.5c0,-3.33672 2.70495,-6.04167 6.04167,-6.04167c3.33672,0 6.04167,2.70495 6.04167,6.04167c0,3.33672 -2.70495,6.04167 -6.04167,6.04167c-3.33672,0 -6.04167,-2.70495 -6.04167,-6.04167z" fill="#e4e4e4" fill-rule="nonzero" stroke-width="0.5" stroke-linecap="butt"/><path d="M282.5,211v-69h15v69z" fill="url(#color-2)" fill-rule="nonzero" stroke-width="0" stroke-linecap="butt"/></g></g></svg>