<svg version="1.1" viewBox="0.0 0.0 631.7926509186352 134.33070866141733" fill="none" stroke="none" stroke-linecap="square" stroke-miterlimit="10" xmlns:xlink="http://www.w3.org/1999/xlink" xmlns="http://www.w3.org/2000/svg"><clipPath id="p.0"><path d="m0 0l631.79266 0l0 134.3307l-631.79266 0l0 -134.3307z" clip-rule="nonzero"/></clipPath><g clip-path="url(#p.0)"><path fill="#000000" fill-opacity="0.0" d="m0 0l631.79266 0l0 134.3307l-631.79266 0z" fill-rule="evenodd"/><path fill="#00ff00" d="m225.18933 37.279385l0 0c-1.1797638 53.94563 -51.635376 96.98729 -113.086266 96.46936c-61.45089 -0.5179291 -110.956085 -44.4021 -110.956085 -98.35767l112.031494 0z" fill-rule="evenodd"/><path fill="#ff0000" d="m428.97375 118.72179l0 0c0 -36.215965 29.358826 -65.57481 65.5748 -65.57481c36.215973 0 65.5748 29.35884 65.5748 65.57481l-32.787415 0c0 -18.107986 -14.679382 -32.787407 -32.787384 -32.787407c-18.107971 0 -32.787384 14.67942 -32.787384 32.787407z" fill-rule="evenodd"/><path fill="#ff0000" d="m374.58005 118.72179l0 0c0 -41.48867 22.86679 -79.82565 59.98639 -100.569244c37.1196 -20.743597 82.85239 -20.742233 119.97061 0.0035762787c37.118286 20.745811 59.982666 59.08415 59.98004 100.572815l-30.859375 -0.0018386841c0.0020141602 -30.463478 -16.980957 -58.613804 -44.55133 -73.846634c-27.570404 -15.232836 -61.53943 -15.233849 -89.11081 -0.002658844c-27.57138 15.231194 -44.556213 43.38051 -44.556213 73.84399z" fill-rule="evenodd"/><path fill="#000000" fill-opacity="0.0" d="m-64.43307 2.5958006l770.55115 0l0 130.89764l-770.55115 0z" fill-rule="evenodd"/><path fill="#0000ff" d="m38.17554 100.8533q-7.234375 0 -13.171875 -1.609375q-5.921875 -1.625 -11.671875 -5.625l0 -15.8125l10.15625 0l1.390625 9.3125q2.015625 1.703125 5.5625 2.765625q3.546875 1.046875 7.734375 1.046875q3.546875 0 5.984375 -0.984375q2.453125 -1.0 3.734375 -2.8125q1.28125 -1.8125 1.28125 -4.296875q0 -2.328125 -1.140625 -4.140625q-1.140625 -1.828125 -3.78125 -3.328125q-2.625 -1.515625 -7.109375 -2.90625q-7.78125 -2.28125 -12.875 -5.0q-5.09375 -2.71875 -7.640625 -6.515625q-2.53125 -3.796875 -2.53125 -9.140625q0 -5.296875 2.9375 -9.359375q2.9375 -4.078125 8.140625 -6.40625q5.21875 -2.34375 12.046875 -2.4375q7.546875 -0.078125 13.359375 1.8125q5.828125 1.875 10.046875 5.25l0 14.734375l-9.828125 0l-1.71875 -8.984375q-1.703125 -1.078125 -4.609375 -1.890625q-2.890625 -0.8125 -6.5625 -0.8125q-3.15625 0 -5.5625 0.953125q-2.390625 0.9375 -3.796875 2.734375q-1.390625 1.796875 -1.390625 4.359375q0 2.203125 1.21875 3.84375q1.21875 1.640625 4.0625 3.109375q2.859375 1.453125 7.890625 3.109375q10.828125 3.015625 16.421875 7.953125q5.59375 4.9375 5.59375 12.984375q0 5.5625 -3.015625 9.640625q-3.015625 4.0625 -8.453125 6.265625q-5.421875 2.1875 -12.703125 2.1875zm52.830082 0q-7.1875 0 -12.359375 -3.140625q-5.171875 -3.140625 -7.90625 -8.734375q-2.734375 -5.59375 -2.734375 -12.875l0 -0.9375q0 -7.234375 2.734375 -12.828125q2.734375 -5.59375 7.875 -8.75q5.15625 -3.171875 12.296875 -3.171875q7.234375 0 12.34375 3.171875q5.125 3.15625 7.859375 8.734375q2.75 5.5625 2.75 12.84375l0 0.9375q0 7.28125 -2.75 12.875q-2.734375 5.59375 -7.859375 8.734375q-5.109375 3.140625 -12.25 3.140625zm0 -10.0625q3.40625 0 5.5625 -1.828125q2.15625 -1.84375 3.1875 -5.140625q1.03125 -3.3125 1.03125 -7.71875l0 -0.9375q0 -4.3125 -1.03125 -7.609375q-1.03125 -3.3125 -3.21875 -5.171875q-2.171875 -1.859375 -5.625 -1.859375q-3.375 0 -5.578125 1.859375q-2.1875 1.859375 -3.203125 5.171875q-1.015625 3.296875 -1.015625 7.609375l0 0.9375q0 4.40625 1.015625 7.734375q1.015625 3.3125 3.203125 5.140625q2.203125 1.8125 5.671875 1.8125zm49.322258 10.0625q-7.6875 0 -12.0625 -4.875q-4.3749924 -4.875 -4.3749924 -15.15625l0 -20.265625l-5.359375 -1.34375l0 -7.90625l5.359375 0l13.109367 0l0 29.609375q0 5.203125 1.8125 7.484375q1.828125 2.265625 5.515625 2.265625q2.921875 0 5.15625 -1.140625q2.25 -1.15625 3.6875 -3.265625l0 -25.703125l-5.796875 -1.34375l0 -7.90625l5.796875 0l13.125 0l0 39.40625l5.828125 1.34375l0 7.859375l-17.328125 0l-0.90625 -6.15625q-2.296875 3.421875 -5.75 5.265625q-3.453125 1.828125 -7.8125 1.828125zm36.33789 17.75l0 -7.90625l6.328125 -1.34375l0 -48.796875l-7.0 -1.34375l0 -7.90625l19.046875 0l0.625 5.65625q2.15625 -3.140625 5.203125 -4.84375q3.0625 -1.703125 7.28125 -1.703125q5.890625 0 10.0625 3.21875q4.1875 3.203125 6.40625 8.953125q2.21875 5.75 2.21875 13.421875l0 0.953125q0 7.1875 -2.21875 12.5625q-2.21875 5.359375 -6.421875 8.34375q-4.203125 2.984375 -10.125 2.984375q-3.90625 0 -6.90625 -1.40625q-2.984375 -1.421875 -5.09375 -4.15625l0 14.0625l6.328125 1.34375l0 7.90625l-25.734375 0zm27.5 -27.8125q5.03125 0 7.296875 -3.71875q2.265625 -3.734375 2.265625 -10.109375l0 -0.953125q0 -4.625 -1.03125 -8.0625q-1.03125 -3.4375 -3.171875 -5.390625q-2.125 -1.953125 -5.453125 -1.953125q-2.703125 0 -4.75 1.21875q-2.03125 1.21875 -3.25 3.453125l0 21.296875q1.21875 2.0625 3.25 3.140625q2.046875 1.078125 4.84375 1.078125zm31.578125 -13.78125l0 -10.109375l25.328125 0l0 10.109375l-25.328125 0zm49.814453 23.84375q-7.234375 0 -11.5 -3.875q-4.265625 -3.890625 -4.265625 -10.578125q0 -4.59375 2.484375 -8.046875q2.5 -3.453125 7.375 -5.421875q4.875 -1.984375 12.015625 -1.984375l6.421875 0l0 -3.59375q0 -3.515625 -2.046875 -5.6875q-2.046875 -2.1875 -6.125 -2.1875q-2.109375 0 -3.796875 0.53125q-1.6875 0.515625 -3.03125 1.453125l-1.03125 6.421875l-9.4375 0l-0.1875 -12.625q3.828125 -2.15625 8.265625 -3.5q4.453125 -1.34375 9.9375 -1.34375q9.515625 0 15.046875 4.421875q5.53125 4.421875 5.53125 12.640625l0 20.03125q0 1.0 0.015625 1.96875q0.015625 0.953125 0.15625 1.859375l5.078125 0.71875l0 7.859375l-16.265625 0q-0.484375 -1.265625 -0.984375 -2.703125q-0.5 -1.4375 -0.71875 -2.875q-2.34375 2.96875 -5.515625 4.75q-3.15625 1.765625 -7.421875 1.765625zm3.5 -9.703125q2.75 0 5.21875 -1.234375q2.46875 -1.234375 3.8125 -3.25l0 -7.6875l-6.46875 0q-4.3125 0 -6.546875 1.984375q-2.21875 1.96875 -2.21875 4.75q0 2.609375 1.640625 4.03125q1.640625 1.40625 4.5625 1.40625zm35.13672 -14.140625l0 -10.109375l25.328125 0l0 10.109375l-25.328125 0zm59.92383 23.84375q-7.234375 0 -13.171875 -1.609375q-5.921875 -1.625 -11.671875 -5.625l0 -15.8125l10.15625 0l1.390625 9.3125q2.015625 1.703125 5.5625 2.765625q3.546875 1.046875 7.734375 1.046875q3.546875 0 5.984375 -0.984375q2.453125 -1.0 3.734375 -2.8125q1.28125 -1.8125 1.28125 -4.296875q0 -2.328125 -1.140625 -4.140625q-1.140625 -1.828125 -3.78125 -3.328125q-2.625 -1.515625 -7.109375 -2.90625q-7.78125 -2.28125 -12.875 -5.0q-5.09375 -2.71875 -7.640625 -6.515625q-2.53125 -3.796875 -2.53125 -9.140625q0 -5.296875 2.9375 -9.359375q2.9375 -4.078125 8.140625 -6.40625q5.21875 -2.34375 12.046875 -2.4375q7.546875 -0.078125 13.359375 1.8125q5.828125 1.875 10.046875 5.25l0 14.734375l-9.828125 0l-1.71875 -8.984375q-1.703125 -1.078125 -4.609375 -1.890625q-2.890625 -0.8125 -6.5625 -0.8125q-3.15625 0 -5.5625 0.953125q-2.390625 0.9375 -3.796875 2.734375q-1.390625 1.796875 -1.390625 4.359375q0 2.203125 1.21875 3.84375q1.21875 1.640625 4.0625 3.109375q2.859375 1.453125 7.890625 3.109375q10.828125 3.015625 16.421875 7.953125q5.59375 4.9375 5.59375 12.984375q0 5.5625 -3.015625 9.640625q-3.015625 4.0625 -8.453125 6.265625q-5.421875 2.1875 -12.703125 2.1875zm52.83008 0q-7.1875 0 -12.359375 -3.140625q-5.171875 -3.140625 -7.90625 -8.734375q-2.734375 -5.59375 -2.734375 -12.875l0 -0.9375q0 -7.234375 2.734375 -12.828125q2.734375 -5.59375 7.875 -8.75q5.15625 -3.171875 12.296875 -3.171875q7.234375 0 12.3437805 3.171875q5.125 3.15625 7.859375 8.734375q2.75 5.5625 2.75 12.84375l0 0.9375q0 7.28125 -2.75 12.875q-2.734375 5.59375 -7.859375 8.734375q-5.1094055 3.140625 -12.2500305 3.140625zm0 -10.0625q3.40625 0 5.5625 -1.828125q2.15625 -1.84375 3.1875 -5.140625q1.03125 -3.3125 1.03125 -7.71875l0 -0.9375q0 -4.3125 -1.03125 -7.609375q-1.03125 -3.3125 -3.21875 -5.171875q-2.171875 -1.859375 -5.625 -1.859375q-3.375 0 -5.578125 1.859375q-2.1875 1.859375 -3.203125 5.171875q-1.015625 3.296875 -1.015625 7.609375l0 0.9375q0 4.40625 1.015625 7.734375q1.015625 3.3125 3.203125 5.140625q2.203125 1.8125 5.671875 1.8125zm49.322296 10.0625q-7.6875 0 -12.0625 -4.875q-4.375 -4.875 -4.375 -15.15625l0 -20.265625l-5.359375 -1.34375l0 -7.90625l5.359375 0l13.109375 0l0 29.609375q0 5.203125 1.8125 7.484375q1.828125 2.265625 5.515625 2.265625q2.921875 0 5.15625 -1.140625q2.25 -1.15625 3.6875 -3.265625l0 -25.703125l-5.796875 -1.34375l0 -7.90625l5.796875 0l13.1250305 0l0 39.40625l5.828125 1.34375l0 7.859375l-17.328156 0l-0.90625 -6.15625q-2.296875 3.421875 -5.75 5.265625q-3.453125 1.828125 -7.8125 1.828125zm36.166046 -0.9375l0 -7.859375l6.28125 -1.34375l0 -30.15625l-6.96875 -1.34375l0 -7.90625l19.1875 0l0.578125 6.96875q2.4375 -3.734375 6.0 -5.796875q3.578125 -2.0625 8.15625 -2.0625q7.234375 0 11.3125 4.625q4.09375 4.625 4.09375 14.5l0 21.171875l6.296875 1.34375l0 7.859375l-25.078125 0l0 -7.859375l5.625 -1.34375l0 -21.125q0 -4.890625 -1.9375 -6.9375q-1.921875 -2.046875 -5.75 -2.046875q-2.828125 0 -4.921875 1.203125q-2.078125 1.1875 -3.46875 3.390625l0 25.515625l5.296875 1.34375l0 7.859375l-24.703125 0zm77.3457 0.9375q-5.796875 0 -9.953125 -2.984375q-4.15625 -2.984375 -6.359375 -8.34375q-2.1875 -5.375 -2.1875 -12.5625l0 -0.953125q0 -7.671875 2.21875 -13.421875q2.21875 -5.75 6.34375 -8.953125q4.140625 -3.21875 9.890625 -3.21875q4.0 0 7.0 1.59375q3.015625 1.59375 5.21875 4.515625l0 -17.4375l-7.0 -1.34375l0 -7.906252l7.0 0l13.125 0l0 60.875l6.28125 1.34375l0 7.859375l-17.65625 0l-0.984375 -5.9375q-2.28125 3.375 -5.453125 5.125q-3.171875 1.75 -7.484375 1.75zm3.90625 -10.1875q2.75 0 4.8125 -1.171875q2.0625 -1.171875 3.453125 -3.375l0 -20.609375q-1.34375 -2.34375 -3.40625 -3.625q-2.0625 -1.28125 -4.765625 -1.28125q-3.28125 0 -5.375 1.953125q-2.078125 1.953125 -3.046875 5.421875q-0.96875 3.453125 -0.96875 8.03125l0 0.953125q0 6.375 2.15625 10.046875q2.15625 3.65625 7.140625 3.65625z" fill-rule="nonzero"/></g></svg>