<svg version="1.1" viewBox="0.0 0.0 1920.0 1920.0" fill="none" stroke="none" stroke-linecap="square" stroke-miterlimit="10" xmlns:xlink="http://www.w3.org/1999/xlink" xmlns="http://www.w3.org/2000/svg"><clipPath id="p.0"><path d="m0 0l1920.0 0l0 1920.0l-1920.0 0l0 -1920.0z" clip-rule="nonzero"/></clipPath><g clip-path="url(#p.0)"><path fill="#000000" fill-opacity="0.0" d="m0 0l1920.0 0l0 1920.0l-1920.0 0z" fill-rule="evenodd"/><path fill="#666666" d="m0.021232283 67.42361l782.37915 0l0 235.75702l-782.37915 0z" fill-rule="evenodd"/><path fill="#666666" d="m511.5792 67.42361l0 859.7969l-240.73676 0l0 -859.7969z" fill-rule="evenodd"/><path fill="#999999" d="m1140.9396 970.6222c-96.64758 121.16211 -258.63635 172.8612 -409.56915 130.71484c-150.93286 -42.146362 -260.66406 -169.72021 -277.44217 -322.55518c-16.778076 -152.83496 62.748077 -300.40543 201.07217 -373.1141c138.32416 -72.70868 307.81903 -56.03354 428.5473 42.16104l-159.55927 188.12817c-42.506958 -34.564148 -102.196106 -40.413513 -150.91833 -14.789673c-48.72223 25.62384 -76.74695 77.603516 -70.85797 131.4256c5.888977 53.822144 44.515686 98.73767 97.66388 113.5647c53.148193 14.826965 110.20343 -3.395691 144.25879 -46.07434z" fill-rule="evenodd"/><path fill="#d9d9d9" d="m626.01855 1630.8333c16.711487 -48.69043 57.89435 -216.36401 136.0788 -281.85645c78.18439 -65.49231 273.34503 -57.26367 333.02765 -111.09766c59.682617 -53.833984 11.34082 -173.15955 25.067871 -211.90625c13.727051 -38.746643 -62.071045 -36.689453 57.294556 -20.57373c119.3656 16.115662 537.14624 90.86536 658.8989 117.26782c121.75281 26.402588 73.40845 -4.1141357 71.61755 41.147583c-1.7907715 45.26172 -53.117798 170.75952 -82.362305 230.42273c-29.244507 59.66333 -67.441284 57.607056 -93.104614 127.55701c-25.66333 69.94995 -42.3739 240.70898 -60.875366 292.14258c-18.501343 51.433716 118.172485 45.262207 -50.133057 16.45935c-168.30554 -28.802979 -793.7816 -156.01636 -959.69995 -189.27673c-165.9183 -33.260498 -52.521484 38.404175 -35.81006 -10.286255z" fill-rule="evenodd"/><path fill="#cccccc" d="m1367.2078 648.126l0 0c192.03955 0 347.93457 152.4375 348.7074 340.9735c0.77282715 188.53601 -153.86755 342.20044 -345.90088 343.71777l-1.932373 -235.70776l0 0c62.232666 -0.4543457 112.36023 -48.31311 112.11951 -107.0448c-0.24072266 -58.73175 -50.759155 -106.22308 -112.99365 -106.22308z" fill-rule="evenodd"/><path fill="#cccccc" d="m988.4003 648.126l391.1895 0l0 235.75702l-391.1895 0z" fill-rule="evenodd"/><path fill="#cccccc" d="m1229.1371 648.126l0 859.79675l-240.73676 0l0 -859.79675z" fill-rule="evenodd"/><path fill="#cccccc" d="m988.4003 1097.0714l391.1895 0l0 235.75696l-391.1895 0z" fill-rule="evenodd"/></g></svg>