<svg version="1.1" xmlns="http://www.w3.org/2000/svg" xmlns:xlink="http://www.w3.org/1999/xlink" width="388.30309" height="100.18011" viewBox="0,0,388.30309,100.18011"><g transform="translate(-45.84845,-129.90994)"><g data-paper-data="{&quot;isPaintingLayer&quot;:true}" fill-rule="nonzero" stroke="none" stroke-width="1" stroke-linecap="butt" stroke-linejoin="miter" stroke-miterlimit="10" stroke-dasharray="" stroke-dashoffset="0" style="mix-blend-mode: normal"><path d="M100.46332,139.11159c0,3.90664 -2.32596,7.03797 -5.9381,7.98157c-0.11419,0.03005 -0.2344,0.0601 -0.34859,0.09015c-0.1202,0.96164 -0.27046,2.00741 -0.44476,3.14936l-0.8835,6.25063c-0.30652,2.45217 -1.09987,7.15817 -2.42813,14.38847c-0.00601,0.02404 -0.01202,0.04207 -0.01202,0.06611c-0.34258,1.76099 -0.51087,2.42212 -0.76931,3.08324c-0.01202,0.03005 -0.02404,0.05409 -0.03606,0.07813c-0.87749,2.13363 -2.48823,3.80447 -4.65191,4.83222c-0.88951,0.41471 -1.85716,0.63107 -2.83081,0.63107c-0.18632,0 -0.36662,-0.00601 -0.55294,-0.01803c-0.43274,-0.03606 -0.85345,-0.07813 -1.25614,-0.11419c-0.07813,-0.00601 -0.15627,-0.01202 -0.2344,-0.02404c-2.59642,-0.32455 -4.21917,-1.49654 -5.15677,-2.50626c-0.26445,-0.28248 -0.51087,-0.57698 -0.73926,-0.89552c-0.53491,0.47481 -1.06982,0.82941 -1.56266,1.09987c-0.57097,0.31854 -1.19002,0.54693 -1.83312,0.67915c-0.69118,0.14425 -1.68887,0.34859 -2.9991,0.60102c-1.19603,0.2344 -2.44015,0.13222 -3.58209,-0.2945c-1.18401,-0.44476 -2.28388,-1.18401 -3.35971,-2.25984c-0.75729,-0.75729 -1.32225,-1.68887 -1.64079,-2.71662c-1.13593,-3.66623 -2.60243,-9.05139 -4.48362,-16.45598c-0.01202,-0.06611 -0.03005,-0.12621 -0.04207,-0.19233c-0.19834,-0.8835 -0.50486,-2.19373 -0.91956,-3.91866c-0.28248,-0.87148 -0.63708,-1.97736 -1.0578,-3.32365c-2.16969,-0.5289 -3.66623,-1.65882 -4.62787,-2.65652c-0.91355,-0.9436 -2.0014,-2.55434 -2.19974,-5.00651c-0.01803,-0.1743 -0.02404,-0.3546 -0.02404,-0.53491c0,-2.02544 0.66112,-3.87058 1.90524,-5.3491c1.29821,-1.57468 2.71061,-2.57237 4.32135,-3.04718c1.29821,-0.41471 2.80076,-0.6491 4.57378,-0.69719c0.91956,-0.02404 1.83913,-0.01803 2.73465,-0.04207c0.79936,-0.10217 1.85716,-0.2344 3.18542,-0.39066c0.18632,-0.02404 0.37864,-0.03606 0.57097,-0.04207c0.25243,-0.01202 0.49885,-0.01202 0.72724,-0.01202c1.5867,0 2.86086,0.1743 4.00281,0.55895c0.03606,0.00601 0.06611,0.01803 0.10217,0.03005c0.58299,0.20435 1.12992,0.4688 1.63478,0.77532c0.54092,-0.20435 1.10588,-0.36061 1.70089,-0.4688c0.22238,-0.03606 0.44476,-0.06611 0.67314,-0.07813c1.06381,-0.07813 2.12762,0.01803 3.16739,0.27647c1.61675,-1.74296 3.92467,-2.72864 6.54513,-2.72864c0.72724,0 1.56867,0.09616 2.81879,0.31253c0.0601,0.00601 0.1202,0.01803 0.1743,0.03005c0.00601,0 0.00601,0 0.00601,0c0.79335,-0.05409 1.68887,-0.01803 3.04117,0.10217c0.96164,0.07212 1.93529,0.13824 2.92097,0.20435c1.87519,0.11419 3.47992,0.43875 4.85626,0.98568c0.1202,0.04808 0.2344,0.09616 0.34859,0.15026c2.88491,1.34629 4.60383,4.12301 4.60383,7.41661z" fill="#cc0000"/><path d="M93.06114,137.68597c0.5289,0.24702 0.79275,0.72303 0.79275,1.42743c0,0.8817 -0.33537,1.4106 -1.00431,1.5861c-0.67014,0.1767 -1.26876,0.24702 -1.79766,0.21216c-0.07092,0 -0.5283,-0.12321 -1.37454,-0.37023c-0.66954,-0.1761 -1.2339,-0.24582 -1.69128,-0.21156c-0.03546,0.03546 -0.05289,0.98748 -0.05289,2.85485c-0.10578,1.5861 -0.3528,3.6476 -0.73986,6.18512c-0.5289,3.73655 -0.82881,5.85035 -0.89853,6.34439c-0.28248,2.2911 -1.07583,6.97787 -2.37885,14.06211c-0.21216,1.09146 -0.3528,1.72614 -0.42312,1.90344c-0.24702,0.59862 -0.7056,1.0572 -1.37454,1.37394c-0.42252,-0.03546 -0.82821,-0.07092 -1.21527,-0.10578c-0.56436,-0.07092 -0.95202,-0.22959 -1.16358,-0.47541c-0.38826,-0.38826 -0.66954,-1.03977 -0.84564,-1.95633c-0.3528,-1.44486 -0.5289,-2.18532 -0.5289,-2.22018c-0.28248,-0.8811 -0.98688,-3.43664 -2.115,-7.66604c-0.59922,-2.32596 -1.51518,-5.86838 -2.74847,-10.62607c-0.24702,1.26876 -0.49404,2.89031 -0.73986,4.86347c-0.28308,2.74907 -0.59982,5.28719 -0.95202,7.61315c-0.1767,1.51518 -0.47541,3.63017 -0.89853,6.34439c-0.28248,1.33968 -0.77532,2.20214 -1.48032,2.5904c-0.66954,0.14004 -1.63899,0.33477 -2.90774,0.58179c-0.28248,-0.10578 -0.61665,-0.3528 -1.00431,-0.73986c-1.09266,-3.52379 -2.55555,-8.89933 -4.38806,-16.12422c-0.21156,-0.95142 -0.54693,-2.37885 -1.00431,-4.28228c-0.45858,-1.4094 -1.12872,-3.52379 -2.00922,-6.34439c-0.07092,-0.42252 -0.28248,-1.00431 -0.63468,-1.74417c-1.0572,0.1767 -1.7628,0.26385 -2.115,0.26385c-1.09266,0 -1.9389,-0.31674 -2.53751,-0.95142c-0.21216,-0.21156 -0.33597,-0.5289 -0.37023,-0.95142c0,-0.45798 0.12321,-0.82761 0.37023,-1.11069c0.45738,-0.56316 0.84564,-0.8805 1.16298,-0.95142c0.705,-0.24582 1.65642,-0.38766 2.85485,-0.42312c1.02174,0 2.04347,-0.01683 3.06641,-0.05289c0.81078,-0.10578 1.95633,-0.24582 3.43664,-0.42252c1.09206,-0.03486 1.90344,0.03546 2.43173,0.21156c0.705,0.24702 1.0578,0.75849 1.0578,1.53321c0,0.3528 -0.07092,0.61725 -0.21216,0.79275c-0.42252,0.45858 -1.02234,0.73986 -1.79706,0.84564c-0.63468,0.07092 -1.28739,0.12441 -1.95633,0.15927c-0.21156,0.03546 -0.5283,0.10578 -0.95142,0.21156c-0.28248,0.1767 -0.40569,0.56376 -0.36963,1.16298c0.03486,0.59982 0.3516,1.74477 0.95142,3.43664c0.28188,0.81138 1.07463,4.10618 2.37885,9.88621c0.56376,1.9389 1.4094,4.91636 2.53812,8.93419c-0.03606,0 0.01683,0.07092 0.15867,0.21156c0.49284,-1.86738 0.95142,-4.37003 1.37454,-7.50676c0.28188,-2.14925 0.56316,-4.29971 0.84564,-6.44957c0.06972,-0.66894 0.1761,-1.65642 0.31674,-2.96063c0.14004,-0.77472 0.31734,-1.99058 0.5289,-3.6476c0,-1.09146 0.12321,-2.71361 0.36963,-4.86407c0.14064,-0.63408 0.61605,-1.02114 1.42743,-1.16298c0.49344,-0.03486 0.98688,0.03546 1.48032,0.21156c0.63468,0.24702 0.95202,0.59982 0.95202,1.0578c0,1.30422 0.21156,2.81939 0.63408,4.54613c0.3522,1.02234 0.77532,2.4672 1.26876,4.33517c0.10578,0.56376 1.42743,5.72714 3.96494,15.48954c0.07032,0.21156 0.1761,0.40569 0.31734,0.58119c0.49284,-1.83192 0.84564,-3.40058 1.0572,-4.7048c0.63468,-3.73535 1.46229,-9.53281 2.48523,-17.39298c0.03486,-0.06972 0.01683,-1.02114 -0.05349,-2.85425c-0.07092,-0.10638 -0.15867,-0.1761 -0.26385,-0.21216c-0.95142,-0.21156 -1.92087,-0.42252 -2.90774,-0.63468c-1.26876,-0.28128 -1.90284,-0.68697 -1.90284,-1.21527c0,-0.14004 0.05289,-0.29931 0.15867,-0.47601c0.3516,-0.77472 1.03917,-1.16298 2.06211,-1.16298c0.31674,0 0.8805,0.07092 1.69128,0.21156c0.7044,0.14124 1.2333,0.18511 1.5861,0.13222c0.3522,-0.05289 1.09206,-0.02644 2.22018,0.07933c0.98628,0.07092 1.99058,0.14124 3.01352,0.21156c1.19663,0.06912 2.14805,0.24462 2.85365,0.5265z" fill="#ffffff"/><path d="M128.9599,152.80671v2.90895c0,1.72493 -0.30051,4.1771 -0.9436,7.71712c-0.26445,1.6468 -0.76931,3.34168 -1.49654,5.04257c-0.01202,0.02404 -0.02404,0.04207 -0.03005,0.06611c-1.2922,2.91496 -3.41982,5.45728 -6.32876,7.55485c-3.10127,2.22979 -6.31073,3.35971 -9.55024,3.35971c-1.31023,0 -2.56035,-0.20435 -3.73235,-0.60102c-4.15306,-1.34028 -7.43464,-3.88861 -9.74858,-7.57288c-0.49885,-0.81138 -0.99169,-1.81509 -1.60473,-3.28158c-0.01202,-0.03606 -0.02404,-0.06611 -0.04207,-0.10217c-0.75729,-1.89923 -1.15997,-3.41982 -1.26816,-4.79015c-0.01803,-0.2344 -0.08414,-0.79936 -0.30051,-1.90524c-0.07813,-0.41471 -0.1202,-0.83542 -0.1202,-1.25614v-2.57237c-0.26445,-1.01573 -0.28849,-2.10358 -0.03005,-3.17941c0.09616,-0.41471 0.2344,-0.81739 0.40268,-1.19002c0,-0.73325 0.12621,-1.46649 0.36662,-2.16368c0.06611,-0.30051 0.15627,-0.59501 0.26445,-0.88951c0.00601,-0.00601 0.11419,-0.31253 0.26445,-1.15997c0.18031,-1.03977 0.51688,-2.38005 1.02174,-4.06892c0.00601,-0.01803 0.01202,-0.04207 0.01803,-0.0601c0.97967,-3.14936 2.95703,-6.13643 6.04628,-9.12952c0.02404,-0.02404 0.04207,-0.04207 0.06611,-0.0601c1.56266,-1.47851 3.36572,-2.41611 5.36112,-2.80076c0.36061,-0.06611 0.72724,-0.10217 1.09987,-0.11419c0.22839,-0.00601 0.83542,-0.04207 1.82711,-0.09616c0.03606,0 0.07212,-0.00601 0.10818,-0.00601c2.92698,-0.1202 5.69769,0.50486 8.26405,1.84514c2.96304,1.51458 5.30702,3.79245 6.97186,6.77352c0.78734,1.4124 1.46048,3.12531 2.06151,5.25293c0.7032,2.4101 1.05179,4.53171 1.05179,6.47902z" fill="#cc0000"/><path d="M122.34685,155.71625c0,1.30422 -0.28308,3.50756 -0.84624,6.60824c-0.1761,1.12812 -0.5283,2.30913 -1.0578,3.54242c-0.81138,1.83312 -2.19373,3.45467 -4.14946,4.86407c-1.95633,1.4094 -3.85075,2.1144 -5.68326,2.1144c-0.59922,0 -1.14555,-0.08775 -1.63899,-0.26385c-2.67876,-0.84564 -4.75769,-2.44916 -6.23801,-4.81118c-0.28308,-0.45738 -0.65271,-1.2333 -1.11069,-2.32596c-0.49344,-1.2333 -0.7663,-2.18471 -0.81919,-2.85485c-0.05289,-0.66894 -0.18511,-1.55004 -0.39667,-2.64269v-3.91265c0.14064,-0.06972 0.07032,-0.1755 -0.21156,-0.31674h0.31734c0,-0.1761 0.06972,-0.51087 0.21156,-1.00431c0.14004,-0.49344 0.21156,-0.86367 0.21156,-1.11069c0,-0.21156 -0.05289,-0.40509 -0.15867,-0.58179c0.14004,0 0.26385,-0.05289 0.36963,-0.15867c-0.03546,-0.07032 -0.12381,-0.10578 -0.26385,-0.10578c0.03486,-0.03486 0.09676,-0.08775 0.18511,-0.15867c0.08775,-0.07032 0.14965,-0.12321 0.18572,-0.15867c-0.03606,-0.03546 -0.07933,-0.06191 -0.13283,-0.07994c-0.05289,-0.01683 -0.09737,-0.04327 -0.13222,-0.07933c0.21216,-0.56376 0.40509,-1.33908 0.58179,-2.32596c0.14004,-0.81018 0.42312,-1.92027 0.84564,-3.33026c0.63468,-2.04347 2.07954,-4.15847 4.33517,-6.34439c0.63468,-0.59862 1.32165,-0.96885 2.06211,-1.11009c0.10578,0 0.79275,-0.03546 2.06211,-0.10638c1.7622,-0.06972 3.41801,0.29991 4.96925,1.11069c1.79826,0.91656 3.20705,2.2911 4.22939,4.12361c0.5295,0.95142 1.02234,2.23821 1.48032,3.85916c0.5295,1.79706 0.79335,3.34829 0.79335,4.65191v2.90835zM118.85792,149.84848c-0.21036,-0.49284 -0.45678,-1.12752 -0.73745,-1.90344c-0.3522,-1.5861 -1.39738,-3.04778 -3.13553,-4.38806c-1.73876,-1.33908 -3.34529,-1.93769 -4.8208,-1.79706c-0.66713,0.07092 -1.79165,1.18161 -3.37294,3.33086c-0.77291,1.02234 -1.54523,3.06641 -2.31754,6.13223c-0.70259,2.85485 -1.03676,5.0576 -1.0007,6.60824c0.06972,1.97376 0.1755,3.34829 0.31614,4.12301c0.24522,1.44546 0.77231,2.76711 1.58009,3.96554c0.77291,1.0572 1.37033,1.74417 1.79165,2.06211c1.58009,1.12812 3.07242,1.69128 4.47821,1.69128c0.31554,0 0.61424,-0.03486 0.89552,-0.10578c0.66713,-0.10578 1.45688,-0.54573 2.37043,-1.32165c0.77291,-0.705 1.3523,-1.35651 1.73936,-1.95633c0.5265,-0.8805 1.01873,-2.20214 1.47551,-3.96494c0.70199,-2.57237 1.05419,-5.30402 1.05419,-8.19433c0.0012,-1.55004 -0.10458,-2.97746 -0.31614,-4.28168z" fill="#ffffff"/><path d="M160.26266,173.64173c-1.50857,1.07583 -3.3537,1.69488 -5.47531,1.8211c-0.87749,0.05409 -1.73094,0.10217 -2.55434,0.13824c-0.45077,0.03005 -2.48222,0.18632 -9.29781,0.72724c-0.04808,0.00601 -0.10217,0.00601 -0.15627,0.01202c-1.178,0.06611 -3.17941,0.25243 -5.95613,0.55895c-2.13964,0.39066 -2.69859,0.45678 -3.34769,0.45678c-2.86687,0 -5.45127,-1.12992 -7.26636,-3.1734c-0.90754,-1.02174 -1.4725,-2.30191 -1.62877,-3.65421c-0.11419,-1.03376 -0.34859,-3.11329 0.85345,-5.16879c0.62506,-1.08785 1.80307,-2.60844 3.86457,-3.61214v-2.63248c0,-1.07583 -0.09616,-3.3537 -0.55895,-8.10779c-2.2358,-0.8835 -3.90664,-2.58439 -4.68196,-4.83823c-0.01202,-0.03606 -0.02404,-0.07212 -0.03606,-0.11419c-0.32455,-0.98568 -0.48683,-1.98337 -0.48683,-2.96905c0,-3.0592 2.04948,-8.24001 9.73055,-8.24001c0.70921,0 1.53261,0.07212 2.63849,0.22839c0.08414,0.00601 0.15627,0.00601 0.22839,0.00601c0.82941,-0.09616 2.2959,-0.19233 5.878,-0.2344h0.08414c3.19744,0 5.14475,1.35831 6.22058,2.50626c1.4124,1.50255 2.18772,3.50396 2.18772,5.63158c0,2.9991 -1.45447,5.60152 -3.89462,7.00191c-0.4688,0.27046 -0.96765,0.49885 -1.49053,0.68517c0.02404,0.36061 0.05409,0.72724 0.08414,1.11189c0.01202,0.16228 0.01803,0.32455 0.01803,0.48683v2.51828c0.01202,0.25844 0.07813,1.28018 0.4688,5.1748c0.06611,-0.00601 0.13222,-0.01202 0.19834,-0.01803c-0.04207,-0.22839 -0.08414,-0.44476 -0.12621,-0.66112c-0.31854,-1.61074 -0.02404,-3.26956 0.80537,-4.66393c0.63107,-1.31023 1.65882,-2.44616 3.01112,-3.26956c1.42442,-0.87148 3.06521,-1.33427 4.73004,-1.33427c1.40639,0 2.77071,0.36662 3.95472,1.05179c1.31023,0.7633 2.9991,2.27787 3.79846,5.22288c0.39667,1.4725 0.51087,2.88491 0.34859,4.21917c-0.01803,0.18031 -0.04808,0.94961 0.20435,2.80076c0.15627,0.31253 0.30051,0.63708 0.44476,0.99169c0.13824,0.33657 0.25243,0.67915 0.33056,1.02775c0.75128,3.21547 -0.45077,6.40088 -3.12531,8.31213z" fill="#cc0000"/><path d="M156.95042,166.83035c0.13944,0.59982 -0.03666,1.07583 -0.5295,1.42743c-0.49284,0.3528 -1.17139,0.55534 -2.03566,0.60823c-0.86427,0.05289 -1.69969,0.09737 -2.51107,0.13222c-0.5283,0.03306 -3.68306,0.28008 -9.46249,0.73986c-1.33968,0.07453 -3.52439,0.27948 -6.55535,0.61364c-1.41,0.26144 -2.20275,0.39066 -2.37885,0.39066c-0.98748,0 -1.7628,-0.31734 -2.32596,-0.95202c-0.07092,-0.63468 -0.07092,-1.00431 0,-1.11009c0.42252,-0.77472 1.21527,-1.21587 2.37885,-1.32165c0.95142,-0.07032 1.88541,-0.14004 2.80196,-0.21156c0.03486,0 0.06972,-0.03546 0.10578,-0.10638c0.07032,-1.44426 -0.10578,-3.10067 -0.5289,-4.96925v-2.96063c0,-1.83252 -0.21156,-4.89833 -0.63468,-9.19924c-0.07092,-1.0572 -0.1767,-2.5904 -0.31674,-4.59902c-0.21156,-0.14004 -0.49404,-0.19293 -0.84564,-0.15867c-0.45858,0.07092 -0.73986,0.08775 -0.84564,0.05289c-0.5289,-0.07272 -1.07583,-0.14425 -1.63959,-0.21697c-0.705,-0.14545 -1.14555,-0.4718 -1.32105,-0.97967c-0.10638,-0.32635 -0.15927,-0.63468 -0.15927,-0.92437c0,-1.08845 1.03917,-1.63238 3.1193,-1.63238c0.42252,0 1.09146,0.07092 2.00862,0.21156c0.73986,0.03606 1.2339,0.03606 1.48032,0c0.73986,-0.10578 2.51948,-0.1761 5.34008,-0.21156c0.66894,0 1.13653,0.14064 1.40038,0.42192c0.26445,0.28188 0.39667,0.65091 0.39667,1.10768c0,0.63408 -0.19413,1.056 -0.58179,1.26635c-0.5283,0.31674 -1.35711,0.45738 -2.48462,0.42192c-1.4106,-0.03486 -2.30913,-0.01743 -2.69618,0.05289c0.07032,1.68887 0.22899,4.20295 0.47601,7.54343v2.5856c0,0.56316 0.21156,2.91916 0.63468,7.06922c0.10578,0.95022 0.24582,2.44436 0.42252,4.48423c0.07032,0.12381 0.15927,0.18511 0.26445,0.18511c1.26816,0.19413 2.43173,0.25604 3.48893,0.18511c1.30362,-0.10578 2.62526,-0.21156 3.96554,-0.31674c0.84564,-0.03486 1.69128,-0.08775 2.53751,-0.15927c1.12812,-0.06972 2.2376,-0.24582 3.33026,-0.5283c0,-0.38766 -0.08775,-1.02174 -0.26385,-1.90344c-0.21156,-1.09146 -0.33597,-1.72614 -0.36963,-1.90284c0.03426,-0.3522 0.05289,-0.86367 0.05289,-1.53381c-0.14064,-0.91536 -0.28308,-1.72614 -0.42252,-2.43173c0.03426,0 0.10578,-0.05289 0.21156,-0.15867c-0.03666,-0.31674 0.14905,-0.59862 0.55534,-0.84564c0.40389,-0.24642 0.83602,-0.37023 1.2946,-0.37023c0.24642,0 0.45798,0.05289 0.63408,0.15927c0.31794,0.1767 0.56376,0.5902 0.74046,1.24171c0.1761,0.65271 0.22899,1.22488 0.15867,1.71832c-0.14064,1.26816 0,3.19022 0.42252,5.762c0.21036,0.28428 0.43935,0.72423 0.68697,1.32285z" fill="#ffffff"/><path d="M199.48433,142.65609c-0.03005,0.39066 -0.04808,0.72123 -0.0601,0.9977c0.11419,0.4688 0.19233,0.9977 0.19233,1.5867c0,0.13222 0.01202,0.31253 0.02404,0.54693c0.07212,0.97366 -0.07813,1.95332 -0.43875,2.86687c-0.28849,0.73926 -0.68517,1.43644 -1.25614,2.20575c-0.49284,0.66713 -1.10588,1.23811 -1.80908,1.67685c-1.51458,0.9436 -3.26956,1.42442 -5.22288,1.42442c-0.34258,0 -0.68517,-0.01803 -1.01573,-0.05409c-0.04808,0.60703 -0.16829,1.19002 -0.34859,1.74296c-0.09015,0.26445 -0.19233,0.5289 -0.31253,0.78133c0.02404,0.39667 0.06611,0.91355 0.12621,1.57468c0.57698,4.38145 -1.85716,6.64129 -2.95102,7.42262c-0.22839,0.15627 -0.45678,0.31253 -0.69719,0.45077c0.88951,1.54463 1.09987,2.97506 1.09987,3.96675c0,2.7647 -1.47851,5.22288 -4.05089,6.73746c-0.14425,0.08414 -0.2945,0.16228 -0.44476,0.24041c-0.28248,0.13824 -0.58299,0.2945 -0.89552,0.45678c-0.96164,0.51688 -2.03145,0.78734 -3.12531,0.78734h-3.98478c-0.1743,0.03005 -0.78734,0.15026 -2.09156,0.59501c-2.67455,0.91956 -4.49564,1.31023 -6.08234,1.31023c-1.26816,0 -2.48222,-0.22839 -3.61815,-0.68517c-0.32455,-0.12621 -0.63708,-0.28248 -0.93759,-0.46279c-0.48683,-0.2945 -0.97366,-0.64309 -1.48452,-1.07583c-1.55665,-1.31624 -2.52429,-3.20946 -2.71061,-5.33107c-0.15026,-1.61675 0.10818,-3.11329 0.76931,-4.43554c0.03005,-0.0601 0.0601,-0.1202 0.09015,-0.1743c1.19002,-2.21777 3.08925,-3.78644 5.41521,-4.53171c0.01202,-0.34258 0.02404,-0.7032 0.04207,-1.08785v-0.04207c-2.50025,-1.3523 -4.07493,-4.00281 -4.07493,-7.22428c0,-2.53631 1.09386,-4.79015 3.01112,-6.25664c-1.31023,-0.67314 -2.43414,-1.68887 -3.26355,-2.96905c-0.87148,-1.26215 -1.32826,-2.72263 -1.32826,-4.26726c0,-3.19744 1.92928,-5.96815 5.1748,-7.43464c1.5266,-0.71522 3.03516,-1.09386 4.48963,-1.12992c0.31854,-0.01803 0.97967,-0.07813 2.16969,-0.27647c1.64079,-0.28849 2.69859,-0.4688 3.1734,-0.54693c0.05409,-0.00601 0.10217,-0.01202 0.15627,-0.01803c1.70089,-0.22238 4.15907,-0.49284 7.50676,-0.81739c0.14425,-0.01803 0.28248,-0.02404 0.42673,-0.03005c1.91125,-0.06611 4.62787,-0.27647 8.08375,-0.63107c0.7633,-0.13222 1.46649,-0.19233 2.13964,-0.19233c1.21406,0 2.34399,0.21637 3.36572,0.63708c0.02404,0.01202 0.04808,0.01803 0.07813,0.03005c2.57237,1.10588 4.33938,3.43184 4.76009,6.24462c0.12621,0.75128 0.12621,1.53261 0.08414,2.69258c-0.00601,0.36061 -0.03606,0.97967 -0.1743,2.69859z" fill="#cc0000"/><path d="M193.04739,146.24239c-0.06912,0.1767 -0.20795,0.40569 -0.41591,0.68757c-0.45137,0.28248 -1.02414,0.42252 -1.71772,0.42252c-0.72904,0 -1.13713,-0.28188 -1.22428,-0.84564c-0.08775,-0.56376 -0.09556,-1.37454 -0.02464,-2.43173c0.14004,-1.4094 0.21156,-2.25503 0.21156,-2.53812c0,-0.66894 -0.10698,-1.18041 -0.31794,-1.53321c-1.44967,0.10578 -3.74737,0.26445 -6.89432,0.47601c-4.31353,0.21156 -7.58249,0.63468 -9.80988,1.26876c-0.03546,0.38826 -0.12381,0.73986 -0.26445,1.0572c0,0.24702 0,0.58179 0,1.00431c0,0.67014 0,1.39257 0,2.16729c0,2.00922 0.28188,4.14224 0.84564,6.39728c1.30362,0.07092 3.17159,-0.03486 5.60333,-0.31674c0,-0.56376 -0.03546,-1.35651 -0.10578,-2.37945c-0.10578,-1.19724 -0.16708,-2.00862 -0.18511,-2.43173c-0.01803,-0.42252 -0.06191,-0.82761 -0.13222,-1.21587c-0.03606,-0.49284 0.01683,-0.89853 0.15867,-1.21527c0.14004,-0.31734 0.54573,-0.49284 1.21587,-0.5289c0.63468,-0.07032 1.09146,0 1.37454,0.21156c0.28188,0.21216 0.43995,0.53852 0.47541,0.97846c0.03486,0.44055 0.07032,0.85465 0.10578,1.24171c0.10638,1.19844 0.1761,2.82 0.21216,4.86407c0.77472,0.21156 1.16298,0.73986 1.16298,1.5861c0,0.1767 -0.01803,0.31734 -0.05289,0.42312c-0.1767,0.1767 -0.40569,0.47541 -0.68757,0.89853c-0.03546,0.07092 -0.03546,0.3528 0,0.84564c0,0.73986 0.07032,1.88601 0.21216,3.43664c0.10578,0.66954 0.03486,1.09266 -0.21216,1.26816c-0.59922,0.42312 -1.25133,0.63468 -1.95573,0.63468c-0.7056,0 -1.11069,-0.28188 -1.21587,-0.84564v-3.54242c-0.03666,-0.28188 -0.08895,-0.68757 -0.16047,-1.21527c-0.24942,-0.14064 -0.81739,-0.1761 -1.7069,-0.10578c-0.63949,0.10578 -1.29761,0.19353 -1.97316,0.26385c-0.49825,-0.03486 -1.20926,0.10578 -2.13303,0.42252c-0.03666,-0.21156 -0.05349,0.82881 -0.05349,3.1193v4.33517c0,-0.03546 -0.02644,0.48502 -0.07933,1.55965c-0.05289,1.07523 -0.07933,1.89442 -0.07933,2.45818c0,0.95142 0,1.41 0,1.37454c0.03486,0.03546 0.08775,0.08775 0.15747,0.15867c0.83903,0 2.13303,-0.07032 3.8826,-0.21156c0.06912,0 0.36662,-0.05289 0.89192,-0.15867c0.34919,-0.10638 0.62927,-0.12321 0.83903,-0.05289c0.27948,0.10398 0.54994,0.32936 0.81318,0.67615c0.26265,0.34739 0.39367,0.65872 0.39367,0.93639c0,0.38165 -0.26385,0.72844 -0.79275,1.03977c-0.3528,0.17309 -0.72243,0.36362 -1.11069,0.57217c-0.24642,0 -0.59922,0 -1.0572,0h-3.06641c-0.8817,0 -2.24662,0.31734 -4.09717,0.95142c-1.84995,0.63468 -3.16378,0.95202 -3.9385,0.95202c-0.42312,0 -0.81138,-0.07092 -1.16358,-0.21216c-0.1767,-0.10578 -0.37924,-0.25604 -0.60763,-0.44896c-0.23019,-0.19413 -0.36242,-0.48502 -0.39667,-0.87208c-0.03546,-0.38766 0,-0.68757 0.10578,-0.89913c0.5289,-0.98628 1.42743,-1.49715 2.69618,-1.53321c2.04347,-0.10578 3.08384,-0.16648 3.1187,-0.18511c0.03486,-0.01683 0.12321,-0.11359 0.26385,-0.29089c-0.03546,-0.63408 0.01743,-2.83622 0.15927,-6.60824v-5.81489c-1.72734,0 -2.67876,0 -2.85485,0c-0.81138,-0.06972 -1.21587,-0.59381 -1.21587,-1.57348c0,-0.48983 0.15627,-0.84023 0.4694,-1.04999c0.20795,-0.13944 0.53791,-0.33237 0.98928,-0.57698c0.48563,-0.06912 1.19724,-0.22719 2.13603,-0.4724c-0.12381,-0.90875 -0.24702,-2.2376 -0.37023,-3.98718c0,-0.34919 0.06191,-1.09266 0.18572,-2.22919c0.12261,-1.13713 0.18511,-1.96775 0.18511,-2.49304c0,-0.73385 -0.10578,-1.22308 -0.31674,-1.4683c-0.28308,0 -0.74947,0.06191 -1.40098,0.18511c-0.65271,0.12381 -1.13713,0.18511 -1.45387,0.18511c-0.81138,0 -1.4106,-0.33477 -1.79766,-1.00431c-0.14064,-0.1761 -0.21156,-0.37023 -0.21156,-0.58179c0,-0.56376 0.43995,-1.03917 1.32165,-1.42743c0.73986,-0.3516 1.39137,-0.5283 1.95573,-0.5283c0.77532,-0.03546 1.79766,-0.15927 3.06702,-0.37023c1.5861,-0.28188 2.60783,-0.45798 3.06641,-0.5289c1.62036,-0.21156 4.05209,-0.47541 7.29581,-0.79275c2.1144,-0.06972 5.03957,-0.29871 8.77552,-0.68757c0.95202,-0.1755 1.63899,-0.1755 2.06211,0c0.49284,0.21216 0.77472,0.61725 0.84564,1.21587c0.03486,0.14124 0.03486,0.63468 0,1.48032c0,0.28248 -0.05289,1.07523 -0.15867,2.37885c-0.07092,1.0578 -0.10578,1.90344 -0.10578,2.53812c0,0.07092 0.03666,0.16708 0.10999,0.29029c0.07332,0.12381 0.11119,0.20315 0.11119,0.238c-0.0006,0.24702 0.01382,0.58119 0.04267,1.00431z" fill="#ffffff"/><path d="M233.95745,166.86531c0.51087,2.28989 0.00601,4.03286 -0.63107,5.19884c-1.62877,3.10728 -4.62186,4.95843 -8.04768,4.95843c-0.65511,0 -1.34028,-0.06611 -2.07954,-0.21036h-2.68657c-0.7032,0 -2.02544,-0.04207 -5.31904,-0.40869c-1.95332,-0.22238 -3.60613,-0.33056 -4.90434,-0.33056h-3.26956c-0.08414,0.00601 -0.37864,0.02404 -1.08184,0.09616c-1.09987,0.11419 -1.93529,0.16829 -2.63849,0.16829c-2.04347,0 -3.87058,-0.42072 -5.42723,-1.24412c-0.10217,-0.05409 -0.19834,-0.11419 -0.30051,-0.16829c-1.04578,-0.63107 -3.47992,-2.51227 -3.47992,-6.467c0,-2.13363 0.79335,-4.10498 2.22979,-5.55344c0.69719,-0.70921 1.50255,-1.28619 2.38606,-1.72493c-1.98938,-2.1757 -2.5904,-5.25894 -1.51458,-8.1739c0.42072,-1.11189 1.03977,-2.08555 1.83312,-2.90895c-3.60613,-1.21406 -5.34309,-4.26125 -5.45728,-7.20625c-0.30652,-2.26585 0.57698,-4.56777 2.4101,-6.04027c1.81509,-1.46048 4.00281,-2.31393 6.32275,-2.48222c0.15026,-0.00601 0.30652,-0.01202 0.46279,-0.01202h1.84514c3.97276,-0.07212 10.71622,-1.05179 20.03807,-2.91496c1.20204,-0.27046 2.44616,-0.22238 3.76841,0.15627c0.61304,0.1743 2.0014,0.57698 3.24552,1.79706c0.26445,0.25844 0.49885,0.53491 0.71522,0.82941c0.82941,1.14194 1.40038,2.42813 1.70089,3.8225c0.12621,0.60703 0.16829,1.22007 0.12621,1.83312c-0.07212,1.13593 -0.03005,2.39207 0.12621,3.73235c0.19834,1.62276 -0.21637,3.26355 -1.15396,4.59782c-1.43644,2.03145 -3.63017,3.31764 -6.15447,3.63017c0.00601,0.10818 0.01202,0.22238 0.01202,0.33056v0.51087c1.85716,0.1743 3.56406,0.96164 4.86828,2.25984c2.14565,2.15767 2.16368,4.82621 2.06752,6.20255c0.10818,0.72123 0.14425,1.19002 0.14425,1.65281c0,0.55895 -0.05409,1.17199 -0.1743,2.0014c-0.01202,0.09015 -0.02404,0.16228 -0.03606,0.2344v1.60473c0.01803,0.07813 0.03606,0.15026 0.05409,0.22839z" fill="#cc0000"/><path d="M227.76873,144.40151c-0.42252,0.59982 -1.07523,0.89913 -1.95573,0.89913c-0.45858,0 -0.86427,-0.08775 -1.21587,-0.26445c-0.03546,-0.95142 -0.12381,-2.36081 -0.26385,-4.22939c-2.99609,0.56436 -7.77182,1.39257 -14.32656,2.48523c-0.31734,0.03546 -0.58179,0.12381 -0.79335,0.26385c0.1761,3.24311 0.26445,6.41531 0.26445,9.51598c0.35701,0.07092 1.48272,-0.08775 3.37654,-0.47601c0.92918,-0.14004 2.35961,-0.47541 4.28889,-1.00431c0.03486,-0.56376 -0.03546,-1.50676 -0.21156,-2.82841c-0.1767,-1.32165 -0.24702,-2.29951 -0.21156,-2.93419c0,-0.66894 0.45738,-1.00431 1.37454,-1.00431c1.0572,0 1.62036,0.44055 1.69128,1.32165c0.14004,1.33968 0.3516,3.34829 0.63468,6.02645v8.19433c0.10578,0.14124 0.1755,0.24702 0.21156,0.31674c-0.10578,0.42312 -0.40569,0.78493 -0.89853,1.08424c-0.49404,0.29991 -0.98748,0.44896 -1.48032,0.44896c-0.63468,0 -1.0578,-0.28128 -1.26876,-0.84564c0.07032,-0.3516 0.12321,-0.89853 0.15867,-1.63899v-4.86347c-2.2364,0.07092 -4.75589,0.5283 -7.55965,1.37394c0,0.63468 -0.01803,2.25624 -0.05289,4.86407c-0.03606,2.14986 -0.03606,3.61334 0,4.38806c0,0.1767 0.14004,0.49404 0.42312,0.95142c0.73986,0.03606 1.8848,0.10578 3.43604,0.21216c1.79766,0.1767 3.59471,0.3522 5.39237,0.5283c2.14925,0.24702 3.94691,0.33597 5.39297,0.26445c0.03486,-0.45798 0.12261,-1.18101 0.26385,-2.16729v-3.1193c-0.21156,-0.3516 -0.31734,-0.68757 -0.31734,-1.00431c0,-0.5289 0.21997,-0.97786 0.66112,-1.34809c0.43995,-0.36963 0.92557,-0.55534 1.45387,-0.55534c0.42312,0 0.75789,0.12441 1.00491,0.37023c0.14004,0.14124 0.1755,0.59982 0.10578,1.37454c-0.03606,0.1767 -0.01803,0.48502 0.05289,0.92497c0.07032,0.44115 0.10578,0.73204 0.10578,0.87208c0,0.21216 -0.03546,0.55534 -0.10578,1.03135c-0.07092,0.47541 -0.10578,0.73204 -0.10578,0.7663v3.17159c0,0.03606 0.06972,0.21156 0.21156,0.5289c0.07032,0.31674 0.07032,0.5283 0,0.63468c-0.49464,0.98748 -1.2369,1.48032 -2.22438,1.48032c-0.24762,0 -0.54753,-0.03486 -0.90093,-0.10578c-0.354,-0.07032 -0.56496,-0.10578 -0.63588,-0.10578h-3.23109c-0.84744,0 -2.37464,-0.12321 -4.58219,-0.37023c-2.20695,-0.24582 -4.08815,-0.36963 -5.64119,-0.36963h-3.33687c-0.28308,0 -0.84744,0.04448 -1.69488,0.13222c-0.84744,0.08775 -1.50135,0.13222 -1.96053,0.13222c-0.95322,0 -1.73094,-0.15867 -2.33016,-0.47601c-0.1767,-0.10578 -0.26505,-0.36963 -0.26505,-0.79275c0,-0.38766 0.10518,-0.68757 0.31433,-0.89853c0.45377,-0.45798 1.08244,-0.72183 1.88601,-0.79275c0.52349,0 1.06441,0 1.62396,0c0.38345,0.07092 0.90694,0.03546 1.57107,-0.10578c0.20976,-0.10638 0.33237,-0.3522 0.36662,-0.73986c0.03486,-0.24642 0.03486,-0.61605 0,-1.11069c-0.03486,-0.56376 -0.05229,-0.8805 -0.05229,-0.95142c0,-3.66563 -0.01683,-5.7626 -0.05229,-6.2915c-0.62326,-0.06972 -1.48993,-0.29871 -2.59822,-0.68757c-0.48863,-0.38766 -0.61064,-0.91596 -0.36302,-1.5861c0.21156,-0.56376 0.68757,-0.96885 1.42743,-1.21587c0.5283,-0.1755 1.0572,-0.33477 1.5861,-0.47541c0.10578,-0.38766 0.12261,-0.86367 0.05289,-1.42743c-0.07092,-0.49284 -0.12381,-0.96885 -0.15867,-1.42743c-0.07092,-1.51518 -0.19413,-3.84113 -0.37023,-6.97847c-0.14124,0 -0.61665,0.04448 -1.42743,0.13283c-0.81138,0.08775 -1.44546,0.13222 -1.90284,0.13222c-1.62156,0 -2.43234,-0.48502 -2.43234,-1.45568c0,-0.13763 0.01743,-0.2939 0.05289,-0.4676c-0.03546,-0.06912 -0.06972,-0.10398 -0.10578,-0.10398c0.77472,-0.62266 1.65642,-0.96945 2.64329,-1.03917c0.63468,0 1.26816,0 1.90284,0c4.40549,-0.07032 11.54263,-1.09206 21.41081,-3.06641c0.10578,-0.03546 0.28188,-0.01743 0.5289,0.05289c0.24582,0.07092 0.38766,0.12381 0.42252,0.15867c0.28188,0.38826 0.47601,0.82821 0.58179,1.32165c-0.10638,1.55124 -0.05349,3.20645 0.15747,4.96865z" fill="#ffffff"/><path d="M273.51804,139.86549c0,1.76099 -0.63107,3.42583 -1.77903,4.75408c-1.02775,1.25614 -2.34399,2.21777 -3.84654,2.83682c0.03005,1.36432 0.07212,3.02915 0.12621,4.96444v2.90294c0.16228,3.79245 0.2344,5.30702 0.26445,5.90805c0.03005,0.22839 0.04808,0.46279 0.05409,0.7032c0.03606,1.84514 -0.01803,4.48362 -0.16228,8.07173c-0.01202,0.27647 -0.04207,0.55294 -0.09015,0.8234c-0.25844,1.54463 -0.96164,3.04718 -2.09156,4.45958c-1.49654,1.86317 -3.55805,3.04718 -5.81789,3.32966c-0.27647,0.03606 -0.55294,0.05409 -0.82941,0.05409c-1.30422,0 -2.20575,-0.33657 -3.69629,-0.89552c-1.82711,-0.68517 -3.24552,-2.13964 -3.90063,-3.95472c-1.49053,0.55895 -3.03516,0.78133 -4.57979,0.65511c-0.73325,-0.03606 -1.81509,0.01803 -3.19143,0.15026c-0.20435,0.02404 -0.84143,0.1202 -2.27787,0.43875c-0.07212,0.01803 -0.14425,0.03005 -0.21637,0.04207c-1.47851,0.28248 -2.90895,0.39066 -4.20715,0.33657c-0.09616,-0.00601 -0.19834,-0.01202 -0.2945,-0.02404c-4.18311,-0.36662 -8.4083,-3.20345 -8.4083,-8.69679c0,-0.92557 0.15026,-1.83913 0.44476,-2.72864c0.18632,-0.54693 0.43875,-1.06381 0.75729,-1.55064c0.75729,-1.15396 2.28989,-2.87289 4.98247,-3.72634v-1.03376c0,-0.48683 0.05409,-0.97366 0.16228,-1.44245l-0.09616,-1.61675c0,-0.04207 -0.00601,-0.08414 -0.00601,-0.13222c-0.03005,-0.73325 -0.07813,-1.38836 -0.15627,-1.94731c-0.02404,-0.1743 -0.04207,-0.34859 -0.04808,-0.52289c-0.02404,-0.34258 -0.04207,-0.71522 -0.06611,-1.12391c-3.75038,-0.94961 -6.2927,-4.21316 -6.2927,-8.44436c0,-1.98337 0.81138,-3.80447 2.40409,-5.40319c1.2321,-1.24412 2.62046,-2.02544 4.12301,-2.33798c1.08184,-0.22839 2.30191,-0.28248 4.26726,-0.19233c0.19834,0 0.59501,-0.01803 1.31624,-0.0601c0.99169,-0.06611 1.68286,-0.09616 2.18772,-0.09616c1.77301,0 3.2335,0.66713 4.28529,1.28018c1.56266,-1.83312 3.66623,-2.96905 6.10037,-3.28759c0.1743,-0.01803 0.34258,-0.03606 0.51688,-0.04808l2.0014,-0.10217c0.07212,-0.00601 0.14425,-0.00601 0.21637,-0.00601c1.61675,-0.03606 4.2913,-0.21637 7.95753,-0.55294c2.0014,-0.21637 4.00281,0.26445 5.84794,1.40639c2.56636,1.58069 4.03887,4.06291 4.03887,6.80958z" fill="#cc0000"/><path d="M266.69464,140.3433c-0.56436,0.73986 -1.37454,1.16358 -2.43234,1.26876c-1.72734,0.10578 -2.71422,0.19413 -2.96063,0.26385c-0.03546,0.73986 -0.05289,1.92147 -0.05289,3.54242c0.01743,1.65702 0.07032,4.05329 0.15867,7.19003c0,0.66954 0,1.62096 0,2.85485c0.21216,5.00471 0.31734,7.20746 0.31734,6.60764c0.03486,1.69188 -0.01803,4.24742 -0.15867,7.66604c-0.07092,0.42312 -0.31734,0.89853 -0.73986,1.42743c-0.42312,0.5289 -0.91716,0.82761 -1.48032,0.89853c-0.07092,0 -0.5289,-0.15867 -1.37454,-0.47541c-0.10578,-0.45798 -0.24702,-0.84624 -0.42312,-1.16358c-0.7056,-1.0572 -1.65702,-2.55494 -2.85425,-4.49384c-0.77592,-1.51518 -1.99179,-3.78824 -3.6476,-6.8204c-1.16358,-1.62036 -2.90774,-4.22879 -5.2337,-7.8241c-0.24702,-0.49284 -0.67014,-1.2333 -1.26876,-2.22018h-0.10578c-0.10578,1.55124 -0.08835,3.1187 0.05289,4.7048c0,0.07092 0.02644,0.19413 0.07933,0.37023c0.05289,0.1767 0.07933,0.31674 0.07933,0.42252v3.6476c0,1.69188 -0.07092,3.03155 -0.21156,4.01843c0.03546,0.49344 0.12441,1.21527 0.26625,2.16729c0.49705,0.28248 1.10107,0.42252 1.81208,0.42252c0.28428,0 0.67435,-0.03486 1.17199,-0.10578c0.49705,-0.07032 0.87028,-0.10578 1.1191,-0.10578c1.03015,0 1.77542,0.36963 2.23881,1.11009c0.1755,0.7056 -0.19413,1.26876 -1.11069,1.69188c-0.77532,0.38826 -1.53321,0.54633 -2.27307,0.47541c-1.0572,-0.06972 -2.52009,-0.01382 -4.38806,0.16769c-0.66954,0.07513 -1.67445,0.26205 -3.01352,0.56015c-0.98748,0.18572 -1.88601,0.25964 -2.69618,0.22418c-1.5861,-0.14064 -2.37885,-0.84564 -2.37885,-2.115c0,-0.21156 0.03486,-0.42312 0.10518,-0.63468c0.55835,-0.84564 1.55484,-1.26876 2.98768,-1.26876c0.1743,0 0.45377,0 0.83903,0c0.34919,0 0.61124,0 0.78674,0c0.69839,0 1.18762,-0.12261 1.46709,-0.36963c0,-0.21216 0,-0.56376 0,-1.0578v-5.70911c0.14064,-0.38826 0.19353,-0.93399 0.15927,-1.63959c-0.03606,-0.59862 -0.07092,-1.19724 -0.10578,-1.79706c-0.03606,-0.95142 -0.10638,-1.81509 -0.21216,-2.59101c-0.07092,-1.26816 -0.15867,-2.96063 -0.26385,-5.07443c0,0.10578 0.01683,-0.22899 0.05289,-1.00491c0.03486,-0.45798 -0.07933,-0.77472 -0.34318,-0.95142c-0.26445,-0.1761 -0.67915,-0.26445 -1.24231,-0.26445c-0.28248,0 -0.7056,0.03606 -1.26876,0.10638c-0.56376,0.07092 -0.98748,0.10578 -1.26876,0.10578c-1.33968,0 -2.00862,-0.705 -2.00862,-2.115c0,-0.1761 0.15747,-0.42312 0.473,-0.73986c0.31554,-0.31734 0.57939,-0.49284 0.78974,-0.5289c0.45557,-0.10578 1.38536,-0.12261 2.78934,-0.05289c0.42072,0 1.04337,-0.02644 1.86738,-0.07933c0.8246,-0.05289 1.413,-0.07933 1.764,-0.07933c0.24522,0 0.6485,0.1791 1.21046,0.53791c0.56196,0.35881 0.94721,0.71582 1.15817,1.07403c0.03546,0 1.03015,1.77602 2.98347,5.32566c0.77652,1.44365 1.66844,2.93299 2.67575,4.46439c1.00611,1.53261 2.18051,3.39037 3.52259,5.57268c0.8823,1.51518 2.17149,3.80387 3.86758,6.86788c0.14064,-0.59862 0.21216,-1.2333 0.21216,-1.90284c0,-0.1761 0.03486,-0.5896 0.10578,-1.24231c0.07092,-0.65151 0.10638,-1.1185 0.10638,-1.40098c0,-0.28188 -0.03546,-0.73084 -0.10578,-1.34809c-0.07092,-0.61605 -0.10578,-0.9424 -0.10578,-0.97786v-3.06641c0,-0.31734 -0.08775,-4.65251 -0.26205,-13.00551c-0.14004,-0.03486 -0.29751,-0.05289 -0.4724,-0.05289c-0.31433,0 -0.78674,0.07092 -1.41541,0.21156c-0.62987,0.14124 -1.06621,0.23019 -1.31143,0.26445c-0.45497,-0.03486 -1.06681,-0.05289 -1.83612,-0.05289c-0.03486,-0.03486 -0.27106,-0.20254 -0.708,-0.50245c-0.43815,-0.29931 -0.63829,-0.55534 -0.60343,-0.7663c0,-0.24582 0.08775,-0.58179 0.26445,-1.00431c0.49284,-0.59922 1.14435,-0.95202 1.95573,-1.0578c0.66894,-0.03486 1.33968,-0.07032 2.00922,-0.10578c1.79706,-0.03486 4.63388,-0.22899 8.51107,-0.58179c0.5289,-0.06972 1.09206,0.07933 1.69188,0.44956c0.59862,0.36963 0.89853,0.7663 0.89853,1.18942c-0.0006,0.17971 -0.07212,0.33838 -0.21216,0.47841z" fill="#ffffff"/><path d="M299.07593,167.62038c-1.9413,5.37915 -7.21827,8.64871 -15.68066,9.71853c-0.38465,0.04808 -0.7633,0.07813 -1.14194,0.09015c-0.49284,0.72123 -1.13593,1.34629 -1.89322,1.83312c-1.98337,1.26816 -3.84053,1.88721 -5.67365,1.88721c-3.76841,0 -7.82531,-2.81278 -7.82531,-8.99129c0,-0.42072 0.01803,-0.96765 0.0601,-1.72493c0.01803,-0.32455 0.03606,-0.57698 0.04207,-0.7633c-0.10217,-0.4688 -0.15627,-0.9436 -0.15627,-1.42442v-2.90895c0,-0.47481 0.04808,-0.94961 0.14425,-1.42442c0.00601,-0.40268 0.02404,-0.85345 0.05409,-1.34629c-0.14425,-0.5289 -0.25243,-1.14194 -0.25243,-1.82711c0,-0.31253 0.02404,-0.62506 0.06611,-0.93158c0.22839,-1.61074 0.9436,-3.22749 2.15166,-4.51969c-0.41471,-1.15997 -0.63107,-2.38606 -0.63107,-3.64219v-3.06521c0,-1.24412 0.24642,-2.79475 1.45447,-6.65331c0.50486,-1.65882 0.66713,-2.1757 0.88951,-2.65652c1.18401,-2.65652 2.96905,-3.98478 4.26726,-4.63989c2.12161,-1.0578 4.39948,-1.59872 6.76751,-1.59872c1.09386,0 2.13964,0.11419 3.13733,0.33056c0.44476,-0.30051 0.91956,-0.55294 1.42442,-0.7633c0.64309,-0.27647 1.32826,-0.4688 2.08555,-0.589c1.89322,-0.32455 3.89462,0.07813 5.63759,1.13593c1.83312,1.1179 3.93669,3.43785 3.67825,8.20996c-0.04207,0.84143 -0.11419,1.96534 -0.22238,3.43184c-0.00601,0.03606 -0.00601,0.07212 -0.01202,0.10818c-0.09616,1.06381 -0.2344,2.65051 -0.42072,4.74807c0.04808,0.81138 0.03005,1.71892 -0.04207,2.78874c-0.03005,0.40869 -0.09616,0.81739 -0.20435,1.21406c-0.02404,0.09015 -0.04808,0.1743 -0.07212,0.25243c0.81138,1.03977 1.36432,2.07954 1.74296,2.98107c0.3546,0.71522 0.65511,1.53862 0.91956,2.54232c0.10217,0.37864 0.16829,0.7633 0.19834,1.15396c0.27046,3.37173 0.13222,5.36112 -0.49284,7.04398z" fill="#cc0000"/><path d="M292.97917,161.10771c0.1761,2.18592 0.14004,3.59471 -0.10578,4.22939c-1.02294,2.89031 -4.45958,4.7048 -10.30873,5.44526c-1.97436,0.24702 -3.94751,-0.68697 -5.92187,-2.80196c0,0.31734 0.07032,1.26876 0.21216,2.85546c0.10578,1.16298 0.08775,2.1144 -0.05289,2.85425c-0.8817,0.56376 -1.5861,0.84624 -2.115,0.84624c-0.81138,0 -1.21587,-0.79275 -1.21587,-2.37945c0,-0.28188 0.01743,-0.73084 0.05289,-1.34749c0.03486,-0.61605 0.05289,-1.04818 0.05289,-1.2952c0,-0.59922 -0.05289,-1.02174 -0.15867,-1.26876v-2.90774c0,-0.07032 0.01743,-0.14965 0.05289,-0.238c0.03486,-0.08775 0.07032,-0.16708 0.10578,-0.238c-0.03546,-0.49284 -0.01803,-1.25073 0.05289,-2.27307c0.07032,-0.63468 0.07032,-1.03917 0,-1.21587c-0.1767,-0.3516 -0.26385,-0.56316 -0.26385,-0.63408c0.14004,-0.98688 0.86367,-1.48032 2.16729,-1.48032c0.84564,0 1.35651,0.29991 1.53321,0.89853c0,0.56376 0.07032,1.39257 0.21156,2.48462c0.21216,1.26876 0.8811,2.53812 2.00922,3.80627c1.2333,1.44546 2.4137,2.115 3.54242,2.00922c1.26876,-0.14004 2.53751,-0.43995 3.80627,-0.89853c1.7622,-0.63468 2.81939,-1.37454 3.17219,-2.22018c0.24582,-0.63468 0.36963,-1.30362 0.36963,-2.00922c0,-2.14925 -0.79275,-3.75338 -2.37885,-4.81058c-0.7056,-0.45798 -2.00922,-0.82821 -3.91265,-1.11069c-1.09266,-0.14004 -1.7628,-0.21156 -2.00862,-0.21156c-1.69188,0.03546 -3.26956,-0.51087 -4.73185,-1.63899c-1.46289,-1.12752 -2.19373,-2.43234 -2.19373,-3.91265v-3.06581c0,-0.66894 0.38766,-2.2376 1.16358,-4.7048c0.3516,-1.16358 0.54573,-1.77963 0.58179,-1.85055c0.31674,-0.73986 0.72183,-1.2333 1.21527,-1.48032c1.19784,-0.59862 2.46659,-0.89853 3.80627,-0.89853c2.60783,0 4.5287,1.0572 5.7626,3.17159c0.10578,0.10578 0.28188,0.26445 0.5289,0.47601c0.03486,-0.49284 0.10578,-1.25073 0.21156,-2.27307c-0.03546,-0.45798 -0.07092,-0.89853 -0.10578,-1.32165c0,-0.49284 0.24582,-0.82761 0.73986,-1.00431c0.14064,-0.07032 0.33477,-0.12321 0.58179,-0.15867c0.3522,-0.07032 0.73144,0.01803 1.13713,0.26385c0.40449,0.24702 0.57217,0.98748 0.50185,2.22018c-0.03546,0.77532 -0.10578,1.86798 -0.21156,3.27737c-0.10578,1.16358 -0.26385,2.9432 -0.47601,5.34008c0.07032,0.56376 0.07032,1.33968 0,2.32596c-0.1767,0.66954 -0.7056,1.00431 -1.5861,1.00431c-0.45858,0 -0.89853,-0.12321 -1.32165,-0.36963c-0.21156,-0.66894 -0.31674,-0.95202 -0.31674,-0.84624c0.06972,-0.95142 -0.12381,-2.22018 -0.58179,-3.80627c-0.38826,-0.81018 -0.92497,-1.96414 -1.61254,-3.46249c-0.68757,-1.49775 -1.59511,-2.30011 -2.72263,-2.40589c-1.41,-0.10578 -2.32596,0.37023 -2.74907,1.42743c-0.14064,0.45858 -0.33537,1.12872 -0.58119,2.00922c-0.42312,1.30422 -0.68757,2.55555 -0.79335,3.75338c-0.03546,0.38826 -0.07092,0.54693 -0.10578,0.47601c0.10578,0.7056 0.22899,1.41 0.37023,2.115c0.1761,0.8811 0.60823,1.55124 1.2952,2.00862c0.68757,0.45858 1.9996,0.73986 3.9385,0.84564c4.75769,0.28308 7.70029,1.9395 8.82841,4.96985c0.1755,0.28248 0.3516,0.75789 0.5283,1.42683z" fill="#ffffff"/><path d="M334.69313,143.24834c-0.02404,0.10217 -0.04207,0.20435 -0.07212,0.30652c-0.09015,0.37864 -0.27647,1.27417 -0.46279,3.02314c0,0.03005 0,0.05409 -0.00601,0.07212c1.02775,4.13503 -0.7032,6.65331 -1.85115,7.80127c-0.07212,0.07813 -0.15026,0.15026 -0.2344,0.22238c-1.12391,1.02174 -3.08925,2.24181 -6.02224,2.24181c-1.46048,0 -2.8248,-0.32455 -4.01483,-0.91956c0.03005,1.64079 0.04808,3.90063 0.04808,7.03797c1.08184,0.37864 2.07353,0.99169 2.91496,1.79706c1.67084,1.60473 2.58439,3.75038 2.58439,6.04027c0,3.40178 -1.95933,6.35881 -5.1147,7.71111c-0.07813,0.03606 -0.16228,0.07212 -0.24041,0.10217c-1.0578,0.40268 -2.24782,0.60102 -3.64219,0.60102c-0.50486,0 -1.04578,-0.02404 -1.63478,-0.07813c-0.36061,-0.01803 -0.88951,-0.01202 -1.51458,0.00601c-1.13593,0.12621 -2.73465,0.25243 -4.87429,0.37263c-0.04207,0 -0.08414,0.00601 -0.13222,0.00601c-0.28248,0.01202 -0.55294,0.01803 -0.81739,0.01803c-3.82851,0 -6.62326,-1.21406 -8.31213,-3.60012c-0.03606,-0.04808 -0.06611,-0.09616 -0.09616,-0.14425c-1.71892,-2.56636 -1.767,-5.81188 -0.13222,-8.46239c0.01202,-0.03005 0.03005,-0.05409 0.04808,-0.08414c1.03977,-1.63478 2.56035,-2.80076 4.53171,-3.48593c0.02404,-1.15997 0.01803,-2.61445 -0.01803,-4.33938c-0.97967,0.40869 -2.10959,0.6491 -3.37774,0.6491c-3.34769,0 -6.11239,-1.98938 -7.07403,-5.01252c-0.19834,-0.61304 -0.38465,-1.50857 -0.81739,-3.528c-0.01803,-0.07212 -0.03005,-0.14425 -0.04207,-0.21637l-0.88951,-4.97045c-0.03005,-0.10818 -0.07212,-0.2344 -0.1202,-0.37864c-0.46279,-1.31624 -0.67915,-2.43414 -0.67915,-3.51598c0,-1.34028 0.39066,-3.36572 2.24181,-5.38516c0.93158,-1.02174 2.62647,-2.34399 5.35511,-2.77071c0.33657,-0.05409 0.67915,-0.08414 1.02174,-0.08414h6.6473c0.15026,0 0.30051,0.00601 0.45077,0.01803c2.53631,0.09015 4.80818,0.08414 6.75549,-0.00601c2.72263,-0.1202 5.43925,-0.3546 8.10178,-0.69719c0.30051,-0.09616 0.62506,-0.19233 0.97366,-0.27647c0.33056,-0.08414 0.66713,-0.13824 1.00371,-0.1743c2.56035,-0.2344 4.94641,0.50486 6.80357,2.09156c2.30191,1.97736 3.31764,4.97045 2.71061,8.01162z" fill="#cc0000"/><path d="M328.2093,141.95254c-0.24642,0.98748 -0.45798,2.32596 -0.63408,4.01783c-0.07152,0.84624 -0.03666,1.53321 0.10578,2.06211c0.24522,0.8817 0.22899,1.46349 -0.05289,1.74477c-0.38826,0.3522 -0.91656,0.5283 -1.5861,0.5283c-0.77592,0 -1.28799,-0.23019 -1.53321,-0.69178c-0.03666,-1.41961 -0.01863,-2.75148 0.05289,-3.99439c0.06912,-1.5266 0.10578,-2.32535 0.10578,-2.39627c-0.03666,0 -0.08895,-0.03546 -0.15867,-0.10698c-3.27857,0.14244 -6.36242,0.354 -9.25213,0.63648c-0.07092,0.354 -0.07092,0.91836 0,1.69488c0.14004,1.09506 0.21156,1.73094 0.21156,1.90644c-0.14064,1.09506 -0.21156,2.71902 -0.21156,4.87369c0.14004,0.91836 0.21156,4.85626 0.21156,11.81309v3.86758c0,0.60042 0.08715,1.02414 0.26205,1.27116h3.24612c0.59321,-0.07032 1.07282,0.07092 1.44005,0.42312c0.36602,0.3528 0.54933,0.77532 0.54933,1.26816c0,0.77472 -0.36963,1.32165 -1.11009,1.63959c-0.45858,0.1755 -1.26876,0.21156 -2.43173,0.10578c-0.56376,-0.03606 -1.39257,-0.03606 -2.48523,0c-0.98688,0.12261 -2.57237,0.24582 -4.75769,0.36963c-1.90344,0.07032 -3.06641,-0.19413 -3.48953,-0.79275c-0.28248,-0.42252 -0.28248,-0.86367 0,-1.32165c0.49284,-0.77472 1.77963,-1.16298 3.85976,-1.16298c0.73986,0 1.19724,-0.0613 1.37394,-0.18451c0.1761,-0.12321 0.26445,-0.36121 0.26445,-0.71341c0,-0.31614 0,-0.61485 0,-0.89672c0,-0.5271 0,-1.30121 0,-2.32115c0.10578,-1.79285 0.10578,-4.4668 0,-8.01944c-0.14124,-5.09967 -0.07092,-9.5833 0.21156,-13.45268c-0.03546,-0.03486 -0.08835,-0.08775 -0.15987,-0.15867c-1.27597,0.07092 -3.33146,0.03546 -6.16649,-0.10638c-0.31914,0 -1.40098,0.07152 -3.24311,0.21216c0.45798,3.20765 0.73986,5.62196 0.84564,7.24292c0,0.21156 -0.03546,0.68757 -0.10578,1.42743c-0.03546,0.5283 -0.47601,0.79275 -1.32165,0.79275c-0.45858,0 -0.72243,-0.15747 -0.79275,-0.4718c-0.03546,-0.06912 -0.24702,-1.01392 -0.63468,-2.83141c-0.21156,-1.18822 -0.51147,-2.86627 -0.89853,-5.03356c0,-0.13824 -0.12381,-0.57518 -0.36963,-1.31023c-0.21036,-0.59441 -0.31554,-1.04878 -0.31554,-1.36312c0,-0.24401 0.16648,-0.55114 0.50245,-0.91716c0.33477,-0.36662 0.83722,-0.60343 1.50676,-0.7086c0.10578,0 0.27226,0 0.50245,0c0.22839,0 0.4135,0 0.55474,0c4.19453,0 6.02705,0 5.49815,0c2.85485,0.10638 5.39237,0.10638 7.61254,0c3.17159,-0.14004 6.30773,-0.42252 9.4102,-0.84564c0.21156,-0.10578 0.5283,-0.21156 0.95082,-0.31674c0.77592,-0.07032 1.41,0.10578 1.90404,0.5289c0.49284,0.42192 0.66894,0.98628 0.5283,1.69128z" fill="#ffffff"/><path d="M371.12763,168.67018c0.51087,2.28989 0.00601,4.03286 -0.63107,5.19884c-1.62877,3.10728 -4.62186,4.95843 -8.04768,4.95843c-0.65511,0 -1.34028,-0.06611 -2.07954,-0.21036h-2.68657c-0.7032,0 -2.02544,-0.04207 -5.31904,-0.40869c-1.95332,-0.22238 -3.60613,-0.33056 -4.90434,-0.33056h-3.26956c-0.08414,0.00601 -0.37864,0.02404 -1.08184,0.09616c-1.09987,0.11419 -1.93529,0.16829 -2.63849,0.16829c-2.04347,0 -3.87058,-0.42072 -5.42723,-1.24412c-0.10217,-0.05409 -0.19834,-0.11419 -0.30051,-0.16829c-1.04578,-0.63107 -3.47992,-2.51227 -3.47992,-6.467c0,-2.13363 0.79335,-4.10498 2.22979,-5.55344c0.69719,-0.70921 1.50255,-1.28619 2.38606,-1.72493c-1.98938,-2.1757 -2.5904,-5.25894 -1.51458,-8.1739c0.42072,-1.11189 1.03977,-2.08555 1.83312,-2.90895c-3.60613,-1.21406 -5.34309,-4.26125 -5.45728,-7.20625c-0.30652,-2.26585 0.57698,-4.56777 2.4101,-6.04027c1.81509,-1.46048 4.00281,-2.31393 6.32275,-2.48222c0.15026,-0.00601 0.30652,-0.01202 0.46279,-0.01202h1.84514c3.97276,-0.07212 10.71622,-1.05179 20.03807,-2.91496c1.20204,-0.27046 2.44616,-0.22238 3.76841,0.15627c0.61304,0.1743 2.0014,0.57698 3.24552,1.79706c0.26445,0.25844 0.49885,0.53491 0.71522,0.82941c0.82941,1.14194 1.40038,2.42813 1.70089,3.8225c0.12621,0.60703 0.16829,1.22007 0.12621,1.83312c-0.07212,1.13593 -0.03005,2.39207 0.12621,3.73235c0.19834,1.62276 -0.21637,3.26355 -1.15396,4.59782c-1.43644,2.03145 -3.63017,3.31764 -6.15447,3.63017c0.00601,0.10818 0.01202,0.22238 0.01202,0.33056v0.51087c1.85716,0.1743 3.56406,0.96164 4.86828,2.25984c2.14565,2.15767 2.16368,4.82621 2.06752,6.20255c0.10818,0.72123 0.14425,1.19002 0.14425,1.65281c0,0.55895 -0.05409,1.17199 -0.1743,2.0014c-0.01202,0.09015 -0.02404,0.16228 -0.03606,0.2344v1.60473c0.01803,0.07813 0.03606,0.15026 0.05409,0.22839z" fill="#cc0000"/><path d="M364.93891,146.20638c-0.42252,0.59982 -1.07523,0.89913 -1.95573,0.89913c-0.45858,0 -0.86427,-0.08775 -1.21587,-0.26445c-0.03546,-0.95142 -0.12381,-2.36081 -0.26385,-4.22939c-2.99609,0.56436 -7.77182,1.39257 -14.32656,2.48523c-0.31734,0.03546 -0.58179,0.12381 -0.79335,0.26385c0.1761,3.24311 0.26445,6.41531 0.26445,9.51598c0.35701,0.07092 1.48272,-0.08775 3.37654,-0.47601c0.92918,-0.14004 2.35961,-0.47541 4.28889,-1.00431c0.03486,-0.56376 -0.03546,-1.50676 -0.21156,-2.82841c-0.1767,-1.32165 -0.24702,-2.29951 -0.21156,-2.93419c0,-0.66894 0.45738,-1.00431 1.37454,-1.00431c1.0572,0 1.62036,0.44055 1.69128,1.32165c0.14004,1.33968 0.3516,3.34829 0.63468,6.02645v8.19433c0.10578,0.14124 0.1755,0.24702 0.21156,0.31674c-0.10578,0.42312 -0.40569,0.78493 -0.89853,1.08424c-0.49404,0.29991 -0.98748,0.44896 -1.48032,0.44896c-0.63468,0 -1.0578,-0.28128 -1.26876,-0.84564c0.07032,-0.3516 0.12321,-0.89853 0.15867,-1.63899v-4.86347c-2.2364,0.07092 -4.75589,0.5283 -7.55965,1.37394c0,0.63468 -0.01803,2.25624 -0.05289,4.86407c-0.03606,2.14986 -0.03606,3.61334 0,4.38806c0,0.1767 0.14004,0.49404 0.42312,0.95142c0.73986,0.03606 1.8848,0.10578 3.43604,0.21216c1.79766,0.1767 3.59471,0.3522 5.39237,0.5283c2.14925,0.24702 3.94691,0.33597 5.39297,0.26445c0.03486,-0.45798 0.12261,-1.18101 0.26385,-2.16729v-3.1193c-0.21156,-0.3516 -0.31734,-0.68757 -0.31734,-1.00431c0,-0.5289 0.21997,-0.97786 0.66112,-1.34809c0.43995,-0.36963 0.92557,-0.55534 1.45387,-0.55534c0.42312,0 0.75789,0.12441 1.00491,0.37023c0.14004,0.14124 0.1755,0.59982 0.10578,1.37454c-0.03606,0.1767 -0.01803,0.48502 0.05289,0.92497c0.07032,0.44115 0.10578,0.73204 0.10578,0.87208c0,0.21216 -0.03546,0.55534 -0.10578,1.03135c-0.07092,0.47541 -0.10578,0.73204 -0.10578,0.7663v3.17159c0,0.03606 0.06972,0.21156 0.21156,0.5289c0.07032,0.31674 0.07032,0.5283 0,0.63468c-0.49464,0.98748 -1.2369,1.48032 -2.22438,1.48032c-0.24762,0 -0.54753,-0.03486 -0.90093,-0.10578c-0.354,-0.07032 -0.56496,-0.10578 -0.63588,-0.10578h-3.23109c-0.84744,0 -2.37464,-0.12321 -4.58219,-0.37023c-2.20695,-0.24582 -4.08815,-0.36963 -5.64119,-0.36963h-3.33687c-0.28308,0 -0.84744,0.04448 -1.69488,0.13222c-0.84744,0.08775 -1.50135,0.13222 -1.96053,0.13222c-0.95322,0 -1.73094,-0.15867 -2.33016,-0.47601c-0.1767,-0.10578 -0.26505,-0.36963 -0.26505,-0.79275c0,-0.38766 0.10518,-0.68757 0.31433,-0.89853c0.45377,-0.45798 1.08244,-0.72183 1.88601,-0.79275c0.52349,0 1.06441,0 1.62396,0c0.38345,0.07092 0.90694,0.03546 1.57107,-0.10578c0.20976,-0.10638 0.33237,-0.3522 0.36662,-0.73986c0.03486,-0.24642 0.03486,-0.61605 0,-1.11069c-0.03486,-0.56376 -0.05229,-0.8805 -0.05229,-0.95142c0,-3.66563 -0.01683,-5.7626 -0.05229,-6.2915c-0.62326,-0.06972 -1.48993,-0.29871 -2.59822,-0.68757c-0.48863,-0.38766 -0.61064,-0.91596 -0.36302,-1.5861c0.21156,-0.56376 0.68757,-0.96885 1.42743,-1.21587c0.5283,-0.1755 1.0572,-0.33477 1.5861,-0.47541c0.10578,-0.38766 0.12261,-0.86367 0.05289,-1.42743c-0.07092,-0.49284 -0.12381,-0.96885 -0.15867,-1.42743c-0.07092,-1.51518 -0.19413,-3.84113 -0.37023,-6.97847c-0.14124,0 -0.61665,0.04448 -1.42743,0.13283c-0.81138,0.08775 -1.44546,0.13222 -1.90284,0.13222c-1.62156,0 -2.43234,-0.48502 -2.43234,-1.45568c0,-0.13763 0.01743,-0.2939 0.05289,-0.4676c-0.03546,-0.06912 -0.06972,-0.10398 -0.10578,-0.10398c0.77472,-0.62266 1.65642,-0.96945 2.64329,-1.03917c0.63468,0 1.26816,0 1.90284,0c4.40549,-0.07032 11.54263,-1.09206 21.41081,-3.06641c0.10578,-0.03546 0.28188,-0.01743 0.5289,0.05289c0.24582,0.07092 0.38766,0.12381 0.42252,0.15867c0.28188,0.38826 0.47601,0.82821 0.58179,1.32165c-0.10638,1.55124 -0.05349,3.20645 0.15747,4.96865z" fill="#ffffff"/><path d="M391.87112,175.86791c-0.43274,0.64309 -0.97366,1.21406 -1.60473,1.67084c-0.85946,0.63107 -1.89923,1.178 -3.27557,1.71892c-0.76931,0.30051 -1.59271,0.45678 -2.41611,0.45678c-0.12621,0 -0.24642,0 -0.37263,-0.00601l-3.60613,-0.20435h-3.81649c-0.13824,0 -0.28248,-0.00601 -0.42072,-0.01202c-0.8234,-0.05409 -1.34028,-0.08414 -1.53862,-0.09616c-0.31854,-0.01202 -0.64309,-0.04808 -0.95562,-0.10217c-3.09526,-0.55895 -5.45728,-2.47621 -6.49104,-5.25894c-0.03005,-0.07212 -0.05409,-0.13824 -0.07212,-0.20435c-0.48082,-1.43043 -0.92557,-4.27928 1.44846,-7.35651c1.15396,-1.49654 2.44015,-2.35 3.54603,-2.83682v-5.7638c-0.03606,-1.19002 -0.03606,-2.39207 0,-3.58209v-3.62416c-1.48452,-0.62506 -2.7647,-1.61675 -3.75038,-2.939c-0.42673,-0.56496 -0.75729,-1.19002 -0.97967,-1.86317c-0.30051,-0.88951 -0.45077,-1.79105 -0.45077,-2.68056c0,-1.88721 0.73926,-8.12582 10.24141,-9.06341c1.76099,-0.18632 3.64219,-0.15026 5.39117,0.12621c0.92557,0.09616 1.86918,0.19233 2.83081,0.28849c5.66163,0.4688 7.10408,4.49564 7.4106,5.72173c0.02404,0.11419 0.04808,0.22238 0.07212,0.33056c0.11419,0.60102 0.1743,1.20204 0.1743,1.80307c0,3.2335 -1.76099,5.93209 -4.65191,7.33247v13.9377c0.37263,0.16228 0.72724,0.34859 1.06982,0.56496c0.10818,0.06611 0.21036,0.13222 0.31253,0.20435c1.25614,0.88951 2.83081,2.59642 3.22148,5.67966c0.01202,0.13222 0.03005,0.26445 0.03606,0.39667c0.16228,2.50025 -0.6491,4.2913 -1.3523,5.36112z" fill="#cc0000"/><path d="M386.57311,141.86088c0.03486,0.1767 0.05289,0.3528 0.05289,0.5289c0,0.84564 -0.56376,1.39257 -1.69128,1.63899c-0.95142,0.07092 -1.88601,0.15867 -2.80196,0.26385c-0.28248,0.03606 -0.40569,0.21216 -0.36963,0.5289c0.03486,0.28248 0.06972,0.56376 0.10578,0.84564c0,0.8817 0.03486,2.16729 0.10578,3.85916v19.8776c0.32034,0.07092 1.05179,0.10638 2.19193,0.10638c0.92678,-0.03546 1.5861,0.07092 1.97856,0.31674c0.24942,0.1767 0.4105,0.54693 0.48142,1.11069c0.03486,0.5283 -0.05289,0.95142 -0.26325,1.26816c-0.38646,0.28308 -0.98267,0.58179 -1.78984,0.89913l-3.79125,-0.21216h-1.26395c-1.26395,0 -2.1769,0 -2.73886,0c-1.08905,-0.06972 -1.66724,-0.10578 -1.73695,-0.10578c-0.77352,-0.14004 -1.26455,-0.49284 -1.47431,-1.0572c-0.10638,-0.31734 0.03125,-0.72183 0.4129,-1.21587c0.38105,-0.49284 0.77892,-0.79275 1.19363,-0.89853c0.96765,0.03546 2.21236,-0.07032 3.73295,-0.31734c0,-1.97316 0,-5.81549 0,-11.5246c-0.03606,-1.12752 -0.03606,-2.25564 0,-3.38375c0,-1.4094 0,-2.39627 0,-2.96063v-3.54242c0.03486,-0.84564 -0.05289,-1.97316 -0.26445,-3.38315c-1.2339,0.21156 -2.02665,0.31674 -2.37885,0.31674c-1.09266,0 -1.90284,-0.3516 -2.43173,-1.0572c-0.07092,-0.21216 -0.10578,-0.40509 -0.10578,-0.58179c0,-1.37454 1.42743,-2.20214 4.28228,-2.48523c1.33908,-0.14004 2.62466,-0.10578 3.85916,0.10638c1.02174,0.10578 2.06211,0.21156 3.1187,0.31674c0.95202,0.07272 1.48092,0.31854 1.5861,0.74166z" fill="#ffffff"/><path d="M434.15155,140.76792c0,1.76099 -0.63107,3.42583 -1.77903,4.75408c-1.02775,1.25614 -2.34399,2.21777 -3.84654,2.83682c0.03005,1.36432 0.07212,3.02915 0.12621,4.96444v2.90294c0.16228,3.79245 0.2344,5.30702 0.26445,5.90805c0.03005,0.22839 0.04808,0.46279 0.05409,0.7032c0.03606,1.84514 -0.01803,4.48362 -0.16228,8.07173c-0.01202,0.27647 -0.04207,0.55294 -0.09015,0.8234c-0.25844,1.54463 -0.96164,3.04718 -2.09156,4.45958c-1.49654,1.86317 -3.55805,3.04718 -5.81789,3.32966c-0.27647,0.03606 -0.55294,0.05409 -0.82941,0.05409c-1.30422,0 -2.20575,-0.33657 -3.69629,-0.89552c-1.82711,-0.68517 -3.24552,-2.13964 -3.90063,-3.95472c-1.49053,0.55895 -3.03516,0.78133 -4.57979,0.65511c-0.73325,-0.03606 -1.81509,0.01803 -3.19143,0.15026c-0.20435,0.02404 -0.84143,0.1202 -2.27787,0.43875c-0.07212,0.01803 -0.14425,0.03005 -0.21637,0.04207c-1.47851,0.28248 -2.90895,0.39066 -4.20715,0.33657c-0.09616,-0.00601 -0.19834,-0.01202 -0.2945,-0.02404c-4.18311,-0.36662 -8.4083,-3.20345 -8.4083,-8.69679c0,-0.92557 0.15026,-1.83913 0.44476,-2.72864c0.18632,-0.54693 0.43875,-1.06381 0.75729,-1.55064c0.75729,-1.15396 2.28989,-2.87289 4.98247,-3.72634v-1.03376c0,-0.48683 0.05409,-0.97366 0.16228,-1.44245l-0.09616,-1.61675c0,-0.04207 -0.00601,-0.08414 -0.00601,-0.13222c-0.03005,-0.73325 -0.07813,-1.38836 -0.15627,-1.94731c-0.02404,-0.1743 -0.04207,-0.34859 -0.04808,-0.52289c-0.02404,-0.34258 -0.04207,-0.71522 -0.06611,-1.12391c-3.75038,-0.94961 -6.2927,-4.21316 -6.2927,-8.44436c0,-1.98337 0.81138,-3.80447 2.40409,-5.40319c1.2321,-1.24412 2.62046,-2.02544 4.12301,-2.33798c1.08184,-0.22839 2.30191,-0.28248 4.26726,-0.19233c0.19834,0 0.59501,-0.01803 1.31624,-0.0601c0.99169,-0.06611 1.68286,-0.09616 2.18772,-0.09616c1.77301,0 3.2335,0.66713 4.28529,1.28018c1.56266,-1.83312 3.66623,-2.96905 6.10037,-3.28759c0.1743,-0.01803 0.34258,-0.03606 0.51688,-0.04808l2.0014,-0.10217c0.07212,-0.00601 0.14425,-0.00601 0.21637,-0.00601c1.61675,-0.03606 4.2913,-0.21637 7.95753,-0.55294c2.0014,-0.21637 4.00281,0.26445 5.84794,1.40639c2.56636,1.58069 4.03887,4.06291 4.03887,6.80958z" fill="#cc0000"/><path d="M427.32814,141.24573c-0.56436,0.73986 -1.37454,1.16358 -2.43234,1.26876c-1.72734,0.10578 -2.71422,0.19413 -2.96063,0.26385c-0.03546,0.73986 -0.05289,1.92147 -0.05289,3.54242c0.01743,1.65702 0.07032,4.05329 0.15867,7.19003c0,0.66954 0,1.62096 0,2.85485c0.21216,5.00471 0.31734,7.20746 0.31734,6.60764c0.03486,1.69188 -0.01803,4.24742 -0.15867,7.66604c-0.07092,0.42312 -0.31734,0.89853 -0.73986,1.42743c-0.42312,0.5289 -0.91716,0.82761 -1.48032,0.89853c-0.07092,0 -0.5289,-0.15867 -1.37454,-0.47541c-0.10578,-0.45798 -0.24702,-0.84624 -0.42312,-1.16358c-0.7056,-1.0572 -1.65702,-2.55494 -2.85425,-4.49384c-0.77592,-1.51518 -1.99179,-3.78824 -3.6476,-6.8204c-1.16358,-1.62036 -2.90774,-4.22879 -5.2337,-7.8241c-0.24702,-0.49284 -0.67014,-1.2333 -1.26876,-2.22018h-0.10578c-0.10578,1.55124 -0.08835,3.1187 0.05289,4.7048c0,0.07092 0.02644,0.19413 0.07933,0.37023c0.05289,0.1767 0.07933,0.31674 0.07933,0.42252v3.6476c0,1.69188 -0.07092,3.03155 -0.21156,4.01843c0.03546,0.49344 0.12441,1.21527 0.26625,2.16729c0.49705,0.28248 1.10107,0.42252 1.81208,0.42252c0.28428,0 0.67435,-0.03486 1.17199,-0.10578c0.49705,-0.07032 0.87028,-0.10578 1.1191,-0.10578c1.03015,0 1.77542,0.36963 2.23881,1.11009c0.1755,0.7056 -0.19413,1.26876 -1.11069,1.69188c-0.77532,0.38826 -1.53321,0.54633 -2.27307,0.47541c-1.0572,-0.06972 -2.52009,-0.01382 -4.38806,0.16769c-0.66954,0.07513 -1.67445,0.26205 -3.01352,0.56015c-0.98748,0.18572 -1.88601,0.25964 -2.69618,0.22418c-1.5861,-0.14064 -2.37885,-0.84564 -2.37885,-2.115c0,-0.21156 0.03486,-0.42312 0.10518,-0.63468c0.55835,-0.84564 1.55484,-1.26876 2.98768,-1.26876c0.1743,0 0.45377,0 0.83903,0c0.34919,0 0.61124,0 0.78674,0c0.69839,0 1.18762,-0.12261 1.46709,-0.36963c0,-0.21216 0,-0.56376 0,-1.0578v-5.70911c0.14064,-0.38826 0.19353,-0.93399 0.15927,-1.63959c-0.03606,-0.59862 -0.07092,-1.19724 -0.10578,-1.79706c-0.03606,-0.95142 -0.10638,-1.81509 -0.21216,-2.59101c-0.07092,-1.26816 -0.15867,-2.96063 -0.26385,-5.07443c0,0.10578 0.01683,-0.22899 0.05289,-1.00491c0.03486,-0.45798 -0.07933,-0.77472 -0.34318,-0.95142c-0.26445,-0.1761 -0.67915,-0.26445 -1.24231,-0.26445c-0.28248,0 -0.7056,0.03606 -1.26876,0.10638c-0.56376,0.07092 -0.98748,0.10578 -1.26876,0.10578c-1.33968,0 -2.00862,-0.705 -2.00862,-2.115c0,-0.1761 0.15747,-0.42312 0.473,-0.73986c0.31554,-0.31734 0.57939,-0.49284 0.78974,-0.5289c0.45557,-0.10578 1.38536,-0.12261 2.78934,-0.05289c0.42072,0 1.04337,-0.02644 1.86738,-0.07933c0.8246,-0.05289 1.413,-0.07933 1.764,-0.07933c0.24522,0 0.6485,0.1791 1.21046,0.53791c0.56196,0.35881 0.94721,0.71582 1.15817,1.07403c0.03546,0 1.03015,1.77602 2.98347,5.32566c0.77652,1.44365 1.66844,2.93299 2.67575,4.46439c1.00611,1.53261 2.18051,3.39037 3.52259,5.57268c0.8823,1.51518 2.17149,3.80387 3.86758,6.86788c0.14064,-0.59862 0.21216,-1.2333 0.21216,-1.90284c0,-0.1761 0.03486,-0.5896 0.10578,-1.24231c0.07092,-0.65151 0.10638,-1.1185 0.10638,-1.40098c0,-0.28188 -0.03546,-0.73084 -0.10578,-1.34809c-0.07092,-0.61605 -0.10578,-0.9424 -0.10578,-0.97786v-3.06641c0,-0.31734 -0.08775,-4.65251 -0.26205,-13.00551c-0.14004,-0.03486 -0.29751,-0.05289 -0.4724,-0.05289c-0.31433,0 -0.78674,0.07092 -1.41541,0.21156c-0.62987,0.14124 -1.06621,0.23019 -1.31143,0.26445c-0.45497,-0.03486 -1.06681,-0.05289 -1.83612,-0.05289c-0.03486,-0.03486 -0.27106,-0.20254 -0.708,-0.50245c-0.43815,-0.29931 -0.63829,-0.55534 -0.60343,-0.7663c0,-0.24582 0.08775,-0.58179 0.26445,-1.00431c0.49284,-0.59922 1.14435,-0.95202 1.95573,-1.0578c0.66894,-0.03486 1.33968,-0.07032 2.00922,-0.10578c1.79706,-0.03486 4.63388,-0.22899 8.51107,-0.58179c0.5289,-0.06972 1.09206,0.07933 1.69188,0.44956c0.59862,0.36963 0.89853,0.7663 0.89853,1.18942c-0.0006,0.17971 -0.07212,0.33838 -0.21216,0.47841z" fill="#ffffff"/><path d="M237.88101,212.21566c0,2.54232 -0.4688,4.84424 -1.39437,6.86367c-0.2945,0.78133 -0.72123,1.5867 -1.30422,2.49424c-0.26445,0.40869 -0.57698,0.78734 -0.92557,1.12992c-4.86227,4.7661 -11.50356,7.25434 -19.74357,7.38656h-0.10818c-1.65882,0 -3.36572,-0.39667 -5.07864,-1.18401c-0.10217,-0.04207 -0.19834,-0.09015 -0.2945,-0.14425c-1.50857,-0.78133 -3.07723,-1.95332 -4.80217,-3.57608c-2.27787,-2.1156 -3.60012,-3.98478 -4.19513,-5.96815c-0.07813,-0.18632 -0.18031,-0.42673 -0.30652,-0.70921c-0.24642,-0.57097 -0.41471,-1.17199 -0.49284,-1.79105c-0.10818,-0.24642 -0.19834,-0.49885 -0.27647,-0.7633c-0.24041,-0.84143 -0.36061,-1.74296 -0.36061,-2.68056c0,-2.55434 0.84744,-5.16879 2.5303,-7.77722c0.52289,-0.81739 1.07583,-1.51458 1.64079,-2.10358c-0.55294,-0.42072 -1.0578,-0.91355 -1.50857,-1.47851c-0.1202,-0.14425 -0.22839,-0.30051 -0.33657,-0.45678c-1.08785,-1.63478 -1.30422,-3.39577 -1.36432,-4.57979c-0.00601,-0.04808 -0.00601,-0.10217 -0.01202,-0.15026c-0.01803,-0.22839 -0.1202,-1.09987 -0.57097,-3.90664c-0.16228,-0.39667 -0.28248,-0.80537 -0.36662,-1.2321c-0.11419,-0.60703 -0.19834,-1.02775 -0.24642,-1.25013c-0.12621,-0.51087 -0.19233,-1.04578 -0.19233,-1.59271c0,-1.98337 0.66112,-3.79846 1.91125,-5.25293c0.10818,-0.13222 0.22238,-0.25243 0.34258,-0.37263c1.83312,-1.83312 4.32736,-2.80677 7.4106,-2.88491c0.0601,-0.00601 0.11419,-0.00601 0.1743,-0.00601c0.70921,0 2.54833,-0.02404 7.27237,-0.15627h0.18031c0.21036,0 1.27417,-0.02404 6.19654,-0.34258c0.51688,-0.06611 1.04578,-0.13222 1.5867,-0.19233c0.589,-0.07212 1.12992,-0.10818 1.6468,-0.10818c1.62877,0 3.02314,0.3546 4.25524,1.07583c1.47851,0.87749 2.62046,2.15166 3.32365,3.69028c1.33427,2.90294 0.90754,6.13643 -1.14795,8.66674c-0.28849,0.3546 -0.61304,0.67915 -0.96765,0.96765c-0.45678,0.67314 -1.00972,1.44245 -1.67685,2.31393c4.09897,2.28989 6.32876,5.39117 7.53682,8.18592c0.22839,0.36662 0.43274,0.7633 0.61905,1.19002c0.18031,0.40268 0.31854,0.82941 0.41471,1.26215c0.42072,1.90524 0.63107,3.73235 0.63107,5.43324zM198.85064,191.66071c-0.1743,-0.3546 -0.31854,-0.72724 -0.43274,-1.1179c0.10818,0.39066 0.25243,0.7633 0.42072,1.1179z" fill="#cc0000"/><path d="M230.79376,208.20023c0.31734,1.44546 0.47601,2.78453 0.47601,4.01783c0,1.69128 -0.29991,3.13733 -0.89853,4.33517c-0.10578,0.3528 -0.3528,0.82881 -0.73986,1.42743c-3.63077,3.55925 -8.7052,5.39237 -15.22569,5.49815c-0.7056,0 -1.48032,-0.19413 -2.32596,-0.58179c-0.95142,-0.49404 -2.06211,-1.33968 -3.33026,-2.53812c-1.44546,-1.33908 -2.25624,-2.4137 -2.43234,-3.22448c-0.10578,-0.28188 -0.28248,-0.705 -0.5283,-1.26876c0,-0.07032 -0.12381,-0.84564 -0.37023,-2.32596c-0.07092,0.10578 -0.10578,0.29991 -0.10578,0.58179c-0.07092,-0.24642 -0.10578,-0.5289 -0.10578,-0.84564c0,-1.26876 0.49284,-2.66974 1.48032,-4.20295c0.98628,-1.53321 2.06211,-2.29951 3.22448,-2.29951c0.56376,0 1.11069,0.21216 1.63899,0.63708c0.14064,0.10638 0.21216,0.33657 0.21216,0.68937c0,0.14184 -0.06251,0.32816 -0.18511,0.55775c-0.12441,0.22959 -0.20375,0.41531 -0.238,0.55655c-0.49344,0.42492 -0.98748,0.84924 -1.48032,1.27417c-0.7056,0.67194 -1.09266,1.23811 -1.16298,1.69789c-0.07092,0.28308 -0.10638,0.58359 -0.10638,0.90213c0,1.76941 0.79335,3.51177 2.37945,5.22709c1.5861,1.71532 3.25934,2.57298 5.02214,2.57298c0.31674,0 0.65151,-0.03546 1.00431,-0.10578c0.59862,-0.03606 1.48032,-0.10698 2.64269,-0.21276c1.37454,-0.31794 2.78393,-0.84624 4.22939,-1.5885c1.7622,-0.91776 2.85485,-1.89743 3.27737,-2.9396c0.42312,-1.04037 0.63468,-2.17991 0.63468,-3.41561c0,-1.19964 -0.21156,-2.31153 -0.63468,-3.33567c-0.10578,-0.28308 -0.26385,-0.68877 -0.47541,-1.21827c-1.4106,-2.118 -2.97866,-3.44145 -4.7048,-3.97155c-0.42312,-0.14004 -1.30482,-0.22899 -2.64329,-0.26385c-1.33968,-0.03606 -2.30913,-0.08835 -2.90774,-0.15987c-1.16298,-0.14004 -2.09697,-0.44055 -2.80196,-0.90033c-0.21156,-0.24582 -0.31674,-0.54573 -0.31674,-0.89913c0,-0.84744 0.3516,-1.48332 1.0572,-1.90704c0.56376,-0.3528 1.60353,-1.7652 3.1193,-4.2366c1.02114,-1.44726 2.50145,-3.60072 4.44095,-6.46039c-4.33517,0 -8.63548,0.26385 -12.89973,0.79275c0,0.5289 0.12321,1.49835 0.37023,2.90774c0.31674,1.86798 0.49284,2.97866 0.5283,3.33086c0.03486,0.42252 -0.14064,0.85465 -0.5283,1.2946c-0.38826,0.44115 -0.8817,0.71401 -1.48032,0.81919c-0.56436,0.10638 -1.0578,-0.10578 -1.48032,-0.63408c-0.14124,-0.21216 -0.23019,-0.63468 -0.26445,-1.26876c0,-0.5289 -0.28248,-2.50205 -0.84564,-5.92127c-0.03546,-0.07032 -0.10578,-0.15867 -0.21156,-0.26445c-0.21216,-1.09146 -0.31734,-1.62036 -0.31734,-1.5861c0,-0.38766 0.10578,-0.7044 0.31734,-0.95142c0.59862,-0.59862 1.56747,-0.91596 2.90774,-0.95142c1.09146,0 3.57668,-0.05289 7.45387,-0.15927c0.73986,0 3.01352,-0.12261 6.8198,-0.36963c0.56376,-0.07032 1.14495,-0.14004 1.74417,-0.21156c0.8805,-0.10578 1.4713,-0.07032 1.77121,0.10578c0.29871,0.1767 0.51928,0.42252 0.66052,0.73986c0.28188,0.59982 0.19353,1.18101 -0.26385,1.74417c-0.24702,0.14124 -0.54693,0.40569 -0.89853,0.79275c-0.45858,0.73986 -1.15516,1.71832 -2.08855,2.93419c-0.93399,1.21587 -1.61254,2.1769 -2.03506,2.8813c-0.56436,0.98748 -1.42743,2.4672 -2.59101,4.44095c6.30833,0.95142 10.23781,3.54242 11.78905,7.77182c0.14064,0.14244 0.28248,0.37143 0.42312,0.68877z" fill="#ffffff"/><path d="M271.81745,206.32895c-0.00601,0.0601 -0.01202,0.1202 -0.01803,0.18031c-0.38465,3.01713 -1.72493,5.81188 -3.98478,8.30612c-0.02404,0.03005 -0.05409,0.0601 -0.08414,0.09015c-1.65882,1.76099 -3.87058,3.31163 -6.7615,4.73605c-4.4716,2.19373 -8.67275,3.35971 -12.51328,3.47391c-0.60102,0.03606 -1.55665,0.07813 -2.85485,0.13222c-2.1156,0.08414 -2.18171,0.08414 -2.35601,0.08414h-2.56035c-0.30051,0.03005 -0.59501,0.04808 -0.88951,0.04808c-1.67685,0 -3.28759,-0.49885 -4.66393,-1.43644c-1.92327,-1.31023 -3.16739,-3.31764 -3.50396,-5.65562c-0.19233,-1.36432 0.04207,-2.75869 0.67915,-3.98478c1.16598,-2.25383 3.18542,-3.82851 5.63759,-4.47761c-0.13824,-2.36803 -0.34859,-6.01623 -0.62506,-10.95062c-0.21637,-0.07813 -0.42673,-0.16228 -0.63708,-0.25243c-3.0592,-1.32225 -4.95843,-4.09296 -4.95843,-7.23029c0,-1.178 0.27046,-2.33197 0.80537,-3.43785c1.48452,-3.14936 4.63989,-5.02454 8.44436,-5.02454c0.51688,0 1.16598,0.04207 2.16368,0.13222c0.04808,0.00601 0.09616,0.01202 0.15026,0.01803c0.05409,0.00601 0.10818,0.01202 0.15627,0.01803c0.18031,-0.01202 0.36662,-0.01803 0.57097,-0.01803c0.54693,0 1.46048,0.03606 4.45958,0.2945c2.16969,0.20435 3.90664,0.45077 5.35511,0.74527c0.03606,0.01202 0.07813,0.01803 0.11419,0.02404c6.17851,1.38836 11.27517,5.24091 15.16378,11.46149c0.01202,0.02404 0.02404,0.04808 0.03606,0.07212c0.78133,1.28619 1.49654,2.96304 2.2358,5.27096c0.00601,0.02404 0.01202,0.04207 0.01803,0.0601c0.59501,1.92327 0.72724,4.24923 0.42072,7.32045z" fill="#cc0000"/><path d="M265.23987,205.67324c-0.21156,1.65702 -0.98748,3.22508 -2.32656,4.7054c-1.09266,1.16298 -2.71422,2.27307 -4.86347,3.33026c-3.66623,1.79766 -6.96104,2.73225 -9.88561,2.80196c-0.56376,0.03606 -1.50676,0.07933 -2.82841,0.13222c-1.32165,0.05289 -2.01763,0.07933 -2.08855,0.07933h-3.01292c-0.5289,0.10638 -0.98748,0.02705 -1.37454,-0.238c-0.38766,-0.26385 -0.61605,-0.64249 -0.68757,-1.13653c0.49404,-0.95202 1.46229,-1.35711 2.90774,-1.21587c2.25503,0.21156 3.54242,0.26385 3.85916,0.15867c0,-0.77472 -0.03546,-1.81509 -0.10578,-3.1187c-0.14064,-1.79766 -0.22959,-2.88971 -0.26385,-3.27797c-0.1767,-2.96063 -0.47601,-8.26405 -0.89853,-15.91266c-0.03606,-0.5289 -0.12381,-0.91596 -0.26445,-1.16358c-0.1767,-0.10578 -0.40569,-0.10578 -0.68757,0c-0.3522,0.10578 -0.77532,0.15867 -1.26816,0.15867c-0.77592,0 -1.48993,-0.14004 -2.14084,-0.42252c-0.65211,-0.28188 -0.97786,-0.66894 -0.97786,-1.16358c0,-0.1761 0.05289,-0.36963 0.15867,-0.58179c0.38826,-0.84564 1.21527,-1.26816 2.48462,-1.26816c0.28188,0 0.79275,0.03546 1.53321,0.10578c0.59922,0.07092 1.03917,0.08775 1.32165,0.05289c0.28188,-0.03486 1.63899,0.05289 4.07012,0.26385c1.86798,0.1767 3.40118,0.38826 4.59962,0.63468c4.40489,0.98748 8.06992,3.8243 10.9963,8.51167c0.49284,0.81138 1.02114,2.09697 1.5861,3.85916c0.31614,1.02234 0.36903,2.5898 0.15747,4.7048zM261.32781,207.89341c0.7044,-1.16298 1.0578,-2.43173 1.0578,-3.80627c0,-3.31223 -1.81569,-6.60824 -5.44526,-9.88561c-0.45858,-0.42312 -1.46349,-1.0578 -3.01352,-1.90344c-2.08014,-1.09146 -4.45898,-1.69128 -7.13714,-1.79706c0.3522,8.10658 0.68757,14.09757 1.00431,17.97416c0.14064,1.26876 0.3522,3.15476 0.63468,5.65682c1.83252,0.10578 3.91265,-0.30832 6.23861,-1.24231c2.32596,-0.93339 4.29911,-2.1757 5.92127,-3.72694c0.03366,-0.03486 0.28128,-0.45798 0.73926,-1.26936z" fill="#ffffff"/></g></g></svg>