<svg version="1.1" viewBox="0.0 0.0 720.0 720.0" fill="none" stroke="none" stroke-linecap="square" stroke-miterlimit="10" xmlns:xlink="http://www.w3.org/1999/xlink" xmlns="http://www.w3.org/2000/svg"><clipPath id="p.0"><path d="m0 0l720.0 0l0 720.0l-720.0 0l0 -720.0z" clip-rule="nonzero"/></clipPath><g clip-path="url(#p.0)"><path fill="#000000" fill-opacity="0.0" d="m0 0l720.0 0l0 720.0l-720.0 0z" fill-rule="evenodd"/><path fill="#00ffff" d="m332.6614 270.5112l-265.68207 449.4888l-159.8927 0l425.5748 -720.0z" fill-rule="evenodd"/><path fill="#00ffff" d="m0 562.89764l332.6614 0l0 157.10236l-332.6614 0z" fill-rule="evenodd"/><path fill="#ff0000" d="m332.6614 -0.007874016l126.39371 0l0 720.0l-126.39371 0z" fill-rule="evenodd"/><path fill="#ff0000" d="m719.9974 213.81627l0 0c0 -76.582275 -49.595703 -147.31621 -130.02142 -185.43799c-80.42569 -38.121773 -179.3977 -37.8089 -259.46765 0.8202362c-80.06999 38.629135 -129.00853 109.67455 -128.29861 186.25458l258.89005 -1.6368408z" fill-rule="evenodd"/><path fill="#ff0000" d="m720.0 352.4882l-58.293945 0l0 0l-87.44098 0l-204.02887 0l0 78.892395l0 0l0 33.811005l0 22.54068l204.02887 0l89.720276 102.47714l-2.2792969 -102.47714l58.293945 0l0 -22.54068l0 -33.811005l0 0z" fill-rule="evenodd"/><path fill="#00ffff" d="m0 0l332.6614 0l0 273.25986l-332.6614 0z" fill-rule="evenodd"/></g></svg>